<svg xmlns="http://www.w3.org/2000/svg" width="230.474" height="120.233" viewBox="0 0 230.474 120.233">
  <g id="グループ_5359" data-name="グループ 5359" transform="translate(-321.951 -232.17)">
    <g id="グループ_5358" data-name="グループ 5358" transform="translate(485.438 338.937)">
      <path id="パス_16675" data-name="パス 16675" d="M476.643,330.514a2.422,2.422,0,0,0-1.481-.483,1.971,1.971,0,0,0-1.2.345q-2.039,1.521-2.037,5.388,0,3.384,1.482,4.489a2.468,2.468,0,0,0,1.481.552,2.72,2.72,0,0,0,1.668-.552,3.223,3.223,0,0,0,1.111-2.762v-1.313h-2.871v-1.311h4.722v7.319H477.94l-.278-1.243a4.269,4.269,0,0,1-3.057,1.243,4.36,4.36,0,0,1-2.685-.828q-2.13-1.587-2.13-5.593,0-4.281,2.315-6.009a5,5,0,0,1,3.057-1.035,4.549,4.549,0,0,1,2.778.76,4.039,4.039,0,0,1,1.574,3.452h-1.944A3.082,3.082,0,0,0,476.643,330.514Z" transform="translate(-469.791 -328.719)" fill="#0e63c6"/>
      <path id="パス_16676" data-name="パス 16676" d="M491.246,329.824a3,3,0,0,1,1.2,2.556,3.046,3.046,0,0,1-1.2,2.486,4.257,4.257,0,0,1-1.667.9l3.333,6.422h-2.222l-3.148-6.215H484.95v6.215h-2.13V328.719h4.63A6.183,6.183,0,0,1,491.246,329.824Zm-1.667,4.212a1.934,1.934,0,0,0,.741-1.657,1.965,1.965,0,0,0-.834-1.658,4.1,4.1,0,0,0-2.5-.691H484.95v4.627h2.685A3.164,3.164,0,0,0,489.58,334.036Z" transform="translate(-468.412 -328.719)" fill="#0e63c6"/>
      <path id="パス_16677" data-name="パス 16677" d="M505.627,335.417q0,4.351-2.037,5.87a4.974,4.974,0,0,1-3.057.9,5.128,5.128,0,0,1-3.148-.9q-2.037-1.518-2.037-5.87,0-4.281,2.037-5.8a5.134,5.134,0,0,1,3.148-.9,4.98,4.98,0,0,1,3.057.9Q505.625,331.136,505.627,335.417Zm-8.149,0q0,3.936,1.2,4.835a3.029,3.029,0,0,0,1.852.621,2.9,2.9,0,0,0,1.759-.621q1.2-.9,1.2-4.835,0-3.867-1.2-4.765a2.9,2.9,0,0,0-1.759-.622,3.03,3.03,0,0,0-1.852.622Q497.477,331.551,497.478,335.417Z" transform="translate(-467.086 -328.719)" fill="#0e63c6"/>
      <path id="パス_16678" data-name="パス 16678" d="M508.544,328.719h2.13v9.875a1.846,1.846,0,0,0,.649,1.588,3.227,3.227,0,0,0,1.944.483h.093a3.056,3.056,0,0,0,1.852-.483,1.861,1.861,0,0,0,.74-1.588v-9.875h2.13v9.875a3.338,3.338,0,0,1-1.389,2.831,5.664,5.664,0,0,1-3.333.76h-.093a5.663,5.663,0,0,1-3.334-.76,3.341,3.341,0,0,1-1.389-2.831Z" transform="translate(-465.689 -328.719)" fill="#0e63c6"/>
      <path id="パス_16679" data-name="パス 16679" d="M529.909,329.686a3.724,3.724,0,0,1,0,5.8,5.759,5.759,0,0,1-3.519.966H523.7v5.732h-2.13V328.719h4.815A5.758,5.758,0,0,1,529.909,329.686Zm-6.2.345v5.11h2.13a4.254,4.254,0,0,0,2.592-.69,2.5,2.5,0,0,0,0-3.729,4.262,4.262,0,0,0-2.592-.691Z" transform="translate(-464.31 -328.719)" fill="#0e63c6"/>
    </g>
    <path id="パス_16680" data-name="パス 16680" d="M441.943,271.541c4.641.74,7.494-2.642,11.4-3.484,14.457-4.117,31.454-6.44,46.753-3.8-25.746-1.054-46.958,9.823-65.326,25.858,1.481-3.7.535-8.126-.418-11.713-4.641-7.807-13.826-8.451-21.633-7.289-37.468,8.023-67.438,40.424-90.763,71.447V302.684c28.5-21.325,58.146-39.69,93.5-44.439,11.19-1.264,20.158,4.43,26.49,13.3" transform="translate(0 2.741)" fill="#0e63c6"/>
    <path id="パス_16681" data-name="パス 16681" d="M505.333,265.079a6.862,6.862,0,1,1-6.866-6.856,6.862,6.862,0,0,1,6.866,6.856" transform="translate(17.956 2.757)" fill="#0e63c6"/>
    <path id="パス_16682" data-name="パス 16682" d="M373.252,303.273h-8.257a1.161,1.161,0,0,1-.908-.456,1.834,1.834,0,0,1-.353-1.15q0-1.538,1.261-1.538H385a1.313,1.313,0,0,1,1.013.456,1.536,1.536,0,0,1,.387,1.083,1.647,1.647,0,0,1-.454,1.15,1.269,1.269,0,0,1-.945.456H376.85v22a1.271,1.271,0,0,1-.557.98,1.989,1.989,0,0,1-1.3.421,1.832,1.832,0,0,1-1.255-.421,1.251,1.251,0,0,1-.49-.98Z" transform="translate(4.422 7.192)" fill="#0e63c6"/>
    <path id="パス_16683" data-name="パス 16683" d="M393.525,316.432l5.176-11.793,5.074,11.793Zm11.3,2.779,2.588,6.122a1.74,1.74,0,0,0,1.715,1.19,1.681,1.681,0,0,0,1.752-1.748,2.166,2.166,0,0,0-.178-.911l-10.039-22.7a2.046,2.046,0,0,0-1.924-1.4,1.974,1.974,0,0,0-1.89,1.293L386.46,323.794a2.715,2.715,0,0,0-.28,1.083,1.733,1.733,0,0,0,.452,1.224,1.481,1.481,0,0,0,1.12.488,1.9,1.9,0,0,0,1.854-1.223l2.8-6.155Z" transform="translate(6.798 7.153)" fill="#0e63c6"/>
    <path id="パス_16684" data-name="パス 16684" d="M415.723,317.259v7.8a1.7,1.7,0,0,1-.49,1.191,1.664,1.664,0,0,1-1.221.49,1.8,1.8,0,0,1-1.262-.49,1.635,1.635,0,0,1-.49-1.191V301.2a1.259,1.259,0,0,1,.49-.98,1.668,1.668,0,0,1,1.19-.421,1.878,1.878,0,0,1,1.293.456,1.221,1.221,0,0,1,.49.945v11.821l13.926-12.7a1.891,1.891,0,0,1,1.329-.524,1.629,1.629,0,0,1,1.191.49,1.47,1.47,0,0,1,.489,1.116,1.759,1.759,0,0,1-.557,1.332l-9.379,8.6L434.3,323.59a1.957,1.957,0,0,1,.524,1.4,1.691,1.691,0,0,1-.524,1.229,1.73,1.73,0,0,1-1.26.525,2.235,2.235,0,0,1-1.542-.877l-11.264-12.455Z" transform="translate(9.558 7.158)" fill="#0e63c6"/>
    <path id="パス_16685" data-name="パス 16685" d="M458.139,301.3v15.426q0,10.009-10.671,10.01-5.635,0-8.713-3.468-1.889-2.09-1.89-7.169V301.3a1.388,1.388,0,0,1,.524-1.081,1.909,1.909,0,0,1,1.3-.422,1.852,1.852,0,0,1,1.3.49,1.327,1.327,0,0,1,.523,1.014v13.854q0,4.586,1.293,6.19a6.884,6.884,0,0,0,5.7,2.488,7.8,7.8,0,0,0,4.721-1.4,4.888,4.888,0,0,0,1.816-2.625,13.923,13.923,0,0,0,.457-4.019V301.3a1.382,1.382,0,0,1,.489-1.048,1.716,1.716,0,0,1,1.227-.456,2.105,2.105,0,0,1,1.368.49,1.3,1.3,0,0,1,.56,1.014" transform="translate(12.162 7.158)" fill="#0e63c6"/>
    <path id="パス_16686" data-name="パス 16686" d="M464.183,306.553a3.04,3.04,0,0,0,1.853,2.864,23.658,23.658,0,0,0,5.458,1.47q6.016,1.16,7.625,2.414a6.737,6.737,0,0,1,2.7,5.6,6.812,6.812,0,0,1-2.765,5.672,12.583,12.583,0,0,1-7.767,2.17,13.27,13.27,0,0,1-9.165-3.151,8.332,8.332,0,0,1-1.54-1.924,3.343,3.343,0,0,1-.6-1.611,1.856,1.856,0,0,1,.6-1.36,1.769,1.769,0,0,1,1.292-.564,1.558,1.558,0,0,1,1.436.843q.491.836.945,1.748,2.135,3.288,6.685,3.284,7.272,0,7.274-5.068,0-3.118-5.631-4.3-3.78-.8-4.758-1.047a23.562,23.562,0,0,1-3.781-1.191,5.313,5.313,0,0,1-3.462-5.182,6.51,6.51,0,0,1,2.694-5.352,11.064,11.064,0,0,1,6.965-2.061,13.909,13.909,0,0,1,8.5,2.414c1.537,1.139,2.306,2.181,2.306,3.115a1.894,1.894,0,0,1-.592,1.293,1.625,1.625,0,0,1-1.19.592,1.509,1.509,0,0,1-1.157-.627c-.347-.4-.689-.791-1.013-1.19a9.246,9.246,0,0,0-6.788-2.8,7.941,7.941,0,0,0-4.476,1.122,3.268,3.268,0,0,0-1.645,2.835" transform="translate(14.609 7.158)" fill="#0e63c6"/>
    <path id="パス_16687" data-name="パス 16687" d="M487.628,313.876v11.406a1.357,1.357,0,0,1-.527,1.048,1.939,1.939,0,0,1-1.3.421,1.841,1.841,0,0,1-1.234-.456,1.365,1.365,0,0,1-.491-1.014V301.234a1.286,1.286,0,0,1,.491-1.013,1.8,1.8,0,0,1,1.234-.421,1.9,1.9,0,0,1,1.3.456,1.222,1.222,0,0,1,.527.979v9.726h13.985V301.3a1.378,1.378,0,0,1,.524-1.081,1.819,1.819,0,0,1,1.253-.421,1.872,1.872,0,0,1,1.289.456,1.389,1.389,0,0,1,.485,1.047v23.836a1.509,1.509,0,0,1-.557,1.088,1.674,1.674,0,0,1-1.217.524,1.813,1.813,0,0,1-1.287-.49,1.476,1.476,0,0,1-.49-1.122V313.876Z" transform="translate(17.159 7.158)" fill="#0e63c6"/>
    <path id="パス_16688" data-name="パス 16688" d="M511.7,313.3q0-10.566,8.5-10.563,8.635,0,8.637,10.848,0,10.317-8.466,10.317-8.675,0-8.673-10.6m17.738,9.834q3.323-3.639,3.32-10.113,0-6.194-3.357-9.692-3.359-3.528-9.272-3.531a11.96,11.96,0,0,0-9.584,4.339q-2.727,3.253-2.727,8.883,0,6.577,3.218,10.147,3.254,3.571,9.2,3.571,5.879,0,9.2-3.605" transform="translate(19.671 7.158)" fill="#0e63c6"/>
    <path id="パス_16689" data-name="パス 16689" d="M446.737,287.367a1.529,1.529,0,0,0,.928,1.435,11.719,11.719,0,0,0,2.728.734,10.5,10.5,0,0,1,3.815,1.208,3.37,3.37,0,0,1,1.344,2.8,3.406,3.406,0,0,1-1.381,2.835,6.292,6.292,0,0,1-3.883,1.083,6.638,6.638,0,0,1-4.583-1.571,4.119,4.119,0,0,1-.772-.963,1.689,1.689,0,0,1-.3-.8.939.939,0,0,1,.3-.683.881.881,0,0,1,.647-.279.78.78,0,0,1,.718.416c.166.279.322.575.472.877a3.706,3.706,0,0,0,3.344,1.645q3.638,0,3.638-2.539,0-1.556-2.819-2.153c-1.26-.268-2.05-.439-2.38-.524a11.422,11.422,0,0,1-1.885-.592,2.655,2.655,0,0,1-1.735-2.591,3.249,3.249,0,0,1,1.348-2.676,5.507,5.507,0,0,1,3.478-1.032,6.986,6.986,0,0,1,4.255,1.208c.767.569,1.156,1.088,1.156,1.555a.957.957,0,0,1-.3.649.8.8,0,0,1-.593.3.744.744,0,0,1-.577-.313c-.174-.2-.345-.4-.506-.6a4.637,4.637,0,0,0-3.394-1.4,3.98,3.98,0,0,0-2.243.558,1.632,1.632,0,0,0-.818,1.418" transform="translate(12.985 5.484)" fill="#0e63c6"/>
    <path id="パス_16690" data-name="パス 16690" d="M459.846,292.306l2.589-5.893,2.537,5.893Zm5.651,1.39,1.293,3.058a.869.869,0,0,0,.858.6.841.841,0,0,0,.629-.245.853.853,0,0,0,.244-.631,1.167,1.167,0,0,0-.085-.456l-5.023-11.349a1.022,1.022,0,0,0-.962-.7.991.991,0,0,0-.946.644l-5.193,11.371a1.39,1.39,0,0,0-.143.546.865.865,0,0,0,.228.609.732.732,0,0,0,.562.246.956.956,0,0,0,.924-.609l1.4-3.081Z" transform="translate(14.205 5.482)" fill="#0e63c6"/>
    <path id="パス_16691" data-name="パス 16691" d="M471.428,286.507c0-.4.045-.644.139-.734a1.065,1.065,0,0,1,.718-.159H474.8q2.889,0,2.888,2.431,0,2.332-2.958,2.33h-3.305Zm3.969,5.325a4.479,4.479,0,0,0,3.115-1,3.668,3.668,0,0,0,1.1-2.836,3.605,3.605,0,0,0-1.1-2.841,4.524,4.524,0,0,0-3.149-1h-3.707a2.33,2.33,0,0,0-1.584.388,2.048,2.048,0,0,0-.421,1.519v10.6a.709.709,0,0,0,.244.541.894.894,0,0,0,.632.244.925.925,0,0,0,.635-.228.741.741,0,0,0,.265-.557v-4.829Z" transform="translate(15.632 5.502)" fill="#0e63c6"/>
    <path id="パス_16692" data-name="パス 16692" d="M483.086,286.507c0-.4.045-.644.139-.734a1.067,1.067,0,0,1,.718-.159h2.52q2.886,0,2.886,2.431,0,2.332-2.958,2.33h-3.305Zm3.969,5.325a4.476,4.476,0,0,0,3.115-1,3.67,3.67,0,0,0,1.1-2.836,3.607,3.607,0,0,0-1.1-2.841,4.523,4.523,0,0,0-3.149-1h-3.707a2.325,2.325,0,0,0-1.582.388,2.057,2.057,0,0,0-.422,1.519v10.6a.711.711,0,0,0,.245.541.894.894,0,0,0,.635.244.931.931,0,0,0,.635-.228.749.749,0,0,0,.262-.557v-4.829Z" transform="translate(16.866 5.502)" fill="#0e63c6"/>
    <path id="パス_16693" data-name="パス 16693" d="M494.6,290.744q0-5.287,4.251-5.285,4.316,0,4.319,5.422,0,5.159-4.231,5.159-4.339,0-4.339-5.3m8.869,4.914a7.229,7.229,0,0,0,1.659-5.057,6.721,6.721,0,0,0-1.675-4.847,6.092,6.092,0,0,0-4.639-1.764,5.975,5.975,0,0,0-4.789,2.17,6.679,6.679,0,0,0-1.367,4.441,7.316,7.316,0,0,0,1.611,5.075,6.809,6.809,0,0,0,9.2-.018" transform="translate(18.067 5.485)" fill="#0e63c6"/>
    <path id="パス_16694" data-name="パス 16694" d="M508.317,286.45a1.092,1.092,0,0,1,.143-.7,1.039,1.039,0,0,1,.661-.136h3.412q2.68,0,2.679,1.891,0,2.279-2.9,2.277h-3.991Zm4.027,4.813a4.217,4.217,0,0,1,2.079.4,1.881,1.881,0,0,1,.877,1.412c.032.233.072.808.118,1.713a7.118,7.118,0,0,0,.262,1.737q.3.906,1.017.906a.86.86,0,0,0,.629-.262.823.823,0,0,0,.279-.627,1.706,1.706,0,0,0-.1-.563c-.06-.137-.118-.279-.175-.416a5.2,5.2,0,0,1-.228-1.247c-.034-.369-.064-.74-.086-1.1a3.013,3.013,0,0,0-.734-1.748,3.886,3.886,0,0,0-1.909-.91,3.062,3.062,0,0,0,2.626-3.19,2.883,2.883,0,0,0-1.035-2.362,4.45,4.45,0,0,0-2.919-.854H508.58a2.468,2.468,0,0,0-1.638.38,2.217,2.217,0,0,0-.4,1.561v10.676a.555.555,0,0,0,.244.451.909.909,0,0,0,.627.21.994.994,0,0,0,.643-.193.589.589,0,0,0,.261-.468v-5.511Z" transform="translate(19.536 5.502)" fill="#0e63c6"/>
    <path id="パス_16695" data-name="パス 16695" d="M520.893,290.744q0-5.287,4.249-5.285,4.321,0,4.322,5.422,0,5.159-4.233,5.159-4.339,0-4.337-5.3m8.867,4.914a7.22,7.22,0,0,0,1.662-5.057,6.708,6.708,0,0,0-1.68-4.847,6.084,6.084,0,0,0-4.635-1.764,5.984,5.984,0,0,0-4.795,2.17,6.7,6.7,0,0,0-1.36,4.441,7.331,7.331,0,0,0,1.606,5.075,6.81,6.81,0,0,0,9.2-.018" transform="translate(20.85 5.485)" fill="#0e63c6"/>
    <path id="パス_16696" data-name="パス 16696" d="M360.148,241.71a.7.7,0,0,1-.7-.37c-.1-.227-.212-.461-.33-.7a3.29,3.29,0,0,0-3.314-1.862,6.756,6.756,0,0,0-2.89.575,2.65,2.65,0,0,0-1.512,1.389,1.035,1.035,0,0,0,.534,1.446,16.713,16.713,0,0,0,2.927.627,10.311,10.311,0,0,1,4.408,1.394,2.362,2.362,0,0,1,.607,2.939,5.72,5.72,0,0,1-2.851,3.068,10.98,10.98,0,0,1-5.182,1.128q-3.578,0-4.977-1.521c-.865-.945-1.16-1.8-.878-2.573a2.042,2.042,0,0,1,.734-.945,1.707,1.707,0,0,1,1.026-.364.758.758,0,0,1,.8.494c.126.422.243.844.351,1.26q.536,1.682,3.94,1.68a6.8,6.8,0,0,0,2.947-.575,2.691,2.691,0,0,0,1.533-1.446q.562-1.548-2.4-2.072-1.534-.232-3.086-.5a6.346,6.346,0,0,1-2.313-.707q-1.476-.924-.686-3.1a5.5,5.5,0,0,1,2.828-2.938,11.17,11.17,0,0,1,5.176-1.1,6.027,6.027,0,0,1,4.1,1.315q1.355,1.179.937,2.333a1.564,1.564,0,0,1-.687.811,1.841,1.841,0,0,1-1.036.317" transform="translate(2.533 0.504)" fill="#0e63c6"/>
    <path id="パス_16697" data-name="パス 16697" d="M370.148,238.417l-4.538,12.465a1.384,1.384,0,0,1-.609.683,1.956,1.956,0,0,1-1.025.284,1.168,1.168,0,0,1-.849-.284.641.641,0,0,1-.114-.683l4.539-12.465a1.358,1.358,0,0,1,.609-.683,1.958,1.958,0,0,1,1.027-.284,1.164,1.164,0,0,1,.846.284.639.639,0,0,1,.114.683m.893-6.247a1.291,1.291,0,0,1,1.133.5,1.262,1.262,0,0,1,.091,1.208,2.677,2.677,0,0,1-.98,1.235,2.577,2.577,0,0,1-1.494.5,1.191,1.191,0,0,1-1.213-1.731,2.59,2.59,0,0,1,.98-1.236,2.632,2.632,0,0,1,1.483-.472" transform="translate(4.34)" fill="#0e63c6"/>
    <path id="パス_16698" data-name="パス 16698" d="M377.787,239.849q3.719-2.913,7.105-2.915a4.158,4.158,0,0,1,3.554,1.389q1.005,1.392.136,3.781l-2.988,8.211a1.5,1.5,0,0,1-.647.712,1.856,1.856,0,0,1-1.031.313.967.967,0,0,1-.8-.313.692.692,0,0,1-.073-.712l2.96-8.131q1.193-3.279-2.06-3.28-3.707,0-7.284,4.037l-2.653,7.294a1.471,1.471,0,0,1-.658.735,1.884,1.884,0,0,1-1.062.318.819.819,0,0,1-.721-.318.756.756,0,0,1-.065-.735l4.526-12.436a1.253,1.253,0,0,1,.553-.6,1.8,1.8,0,0,1,.96-.261,1.238,1.238,0,0,1,.852.261.534.534,0,0,1,.142.6Z" transform="translate(5.237 0.504)" fill="#0e63c6"/>
    <path id="パス_16699" data-name="パス 16699" d="M403.935,242.468c-.5,0-.814-.449-.928-1.36-.188-1.434-1.079-2.152-2.683-2.152a5.524,5.524,0,0,0-3.613,1.417,8.878,8.878,0,0,0-2.6,3.908q-1.785,4.91,2.486,4.908a5.358,5.358,0,0,0,4.244-1.994c.385-.489.784-.973,1.2-1.445a1.72,1.72,0,0,1,1.338-.678.93.93,0,0,1,.908,1.337,6.946,6.946,0,0,1-2.192,2.648,9.621,9.621,0,0,1-6.3,2.284q-3.323,0-4.58-1.919-1.231-1.913-.018-5.245a10.988,10.988,0,0,1,3.921-5.249,9.9,9.9,0,0,1,5.947-1.993,5.2,5.2,0,0,1,3.981,1.338,2.6,2.6,0,0,1,.709,2.807,2.21,2.21,0,0,1-.752,1,1.8,1.8,0,0,1-1.065.391" transform="translate(7.265 0.504)" fill="#0e63c6"/>
    <path id="パス_16700" data-name="パス 16700" d="M413.559,239.883a5.234,5.234,0,0,1,3.147-1.054,2.731,2.731,0,0,1,2.4,1,2.533,2.533,0,0,1,.2,2.443.68.68,0,0,1-.4.472,2.994,2.994,0,0,1-.957.1h-6.674a7.35,7.35,0,0,1,2.277-2.96m5.478,4.976a3.833,3.833,0,0,0,1.759-.318,2.172,2.172,0,0,0,.962-1.258,4.918,4.918,0,0,0-.2-4.511,4.536,4.536,0,0,0-4.106-1.839,9.431,9.431,0,0,0-5.763,1.942,11.166,11.166,0,0,0-3.817,5.273q-1.174,3.23.091,5.2,1.256,1.989,4.411,1.993a10.458,10.458,0,0,0,6.3-2.414,4.28,4.28,0,0,0,1.533-1.68.87.87,0,0,0-.057-.837,1.014,1.014,0,0,0-.854-.342,1.478,1.478,0,0,0-.971.364c-.3.262-.595.535-.879.815a6.32,6.32,0,0,1-4.249,2.072,2.927,2.927,0,0,1-2.725-1.179,3.763,3.763,0,0,1,.02-3.28Z" transform="translate(9.034 0.504)" fill="#0e63c6"/>
    <path id="パス_16701" data-name="パス 16701" d="M451.187,241.845a14.941,14.941,0,0,1-4.395,1.184c-.6,0-.842-.188-.7-.57.1-.279.44-.49,1.025-.638,1.069-.29,1.724-.472,1.971-.546a9.275,9.275,0,0,0,3.8-2.192,2.237,2.237,0,0,1,1.246-.678c.419,0,.571.159.45.478l-4.146,11.4a1.1,1.1,0,0,1-.548.546,1.821,1.821,0,0,1-.89.222,1.162,1.162,0,0,1-.759-.222.485.485,0,0,1-.124-.546Z" transform="translate(13.134 0.66)" fill="#0e63c6"/>
    <path id="パス_16702" data-name="パス 16702" d="M467.727,245.2a3.674,3.674,0,0,1-2.567-.7,1.813,1.813,0,0,1-.252-2.061,3.763,3.763,0,0,1,1.863-2.039,6.8,6.8,0,0,1,3.33-.769,4.566,4.566,0,0,1,3.168.923,2.605,2.605,0,0,1,.619,2.653,10.768,10.768,0,0,1-6.162,1.993m5.678-.353a7.269,7.269,0,0,1-2.7,3.639,7.421,7.421,0,0,1-4.333,1.275,4.254,4.254,0,0,1-3.108-1.145,3.871,3.871,0,0,0-.452-.479.835.835,0,0,0-.614-.244,1.919,1.919,0,0,0-.958.268,1.211,1.211,0,0,0-.592.586c-.193.542.148,1.048,1.037,1.515a9,9,0,0,0,4.123.792,11.722,11.722,0,0,0,6.344-1.669,9.14,9.14,0,0,0,3.774-4.732q1.121-3.065-.29-4.647-1.4-1.6-5.179-1.6a11.185,11.185,0,0,0-5.167,1.117,5.552,5.552,0,0,0-2.855,2.977,2.466,2.466,0,0,0,.555,2.961,6.334,6.334,0,0,0,4.172,1.1,12.244,12.244,0,0,0,6.282-1.822Z" transform="translate(14.674 0.66)" fill="#0e63c6"/>
    <path id="パス_16703" data-name="パス 16703" d="M490.486,240.1h-9.749a.7.7,0,0,1-.566-.233.536.536,0,0,1-.06-.547,1.059,1.059,0,0,1,.475-.541,1.393,1.393,0,0,1,.712-.217h11.918c.777,0,1.085.222.922.672-.078.217-.472.506-1.178.866a23.311,23.311,0,0,0-4.124,2.614,15.869,15.869,0,0,0-3.32,3.484,17.115,17.115,0,0,0-1.823,3.724,1.646,1.646,0,0,1-1.73,1.093c-.9,0-1.2-.4-.906-1.224q1.9-5.218,9.427-9.692" transform="translate(16.734 0.676)" fill="#0e63c6"/>
    <path id="パス_16704" data-name="パス 16704" d="M500.988,241.845a15.013,15.013,0,0,1-4.4,1.184c-.609,0-.843-.188-.7-.57.1-.279.441-.49,1.025-.638,1.067-.29,1.727-.472,1.973-.546a10.672,10.672,0,0,0,1.924-.808,10.514,10.514,0,0,0,1.88-1.383,2.219,2.219,0,0,1,1.244-.678c.418,0,.57.159.452.478l-4.148,11.4a1.117,1.117,0,0,1-.55.546,1.816,1.816,0,0,1-.891.222,1.154,1.154,0,0,1-.757-.222.483.483,0,0,1-.125-.546Z" transform="translate(18.405 0.66)" fill="#0e63c6"/>
  </g>
</svg>
