<svg xmlns="http://www.w3.org/2000/svg" width="466.985" height="105.808"><path d="M166.149.004a62.141 62.141 0 0 1 22.21 3.953 53.321 53.321 0 0 1 17.726 11.025 49.961 49.961 0 0 1 11.723 16.78 53.4 53.4 0 0 1 4.227 21.142 53.4 53.4 0 0 1-4.226 21.143 49.961 49.961 0 0 1-11.723 16.78 53.321 53.321 0 0 1-17.727 11.024 62.141 62.141 0 0 1-22.21 3.953 62.125 62.125 0 0 1-22.273-3.973 53.252 53.252 0 0 1-17.717-11.06 50.017 50.017 0 0 1-11.688-16.786 53.392 53.392 0 0 1-4.212-21.081 53.392 53.392 0 0 1 4.205-21.081 50.017 50.017 0 0 1 11.695-16.786 53.252 53.252 0 0 1 17.72-11.059 62.125 62.125 0 0 1 22.27-3.974zm0 102.8a59.153 59.153 0 0 0 21.143-3.76 50.337 50.337 0 0 0 16.736-10.4 46.978 46.978 0 0 0 11.024-15.778 50.422 50.422 0 0 0 3.983-19.962 50.422 50.422 0 0 0-3.984-19.962 46.978 46.978 0 0 0-11.023-15.778 50.337 50.337 0 0 0-16.736-10.4 59.153 59.153 0 0 0-21.143-3.76 59.138 59.138 0 0 0-21.2 3.779 50.269 50.269 0 0 0-16.73 10.432 47.036 47.036 0 0 0-10.992 15.789 50.412 50.412 0 0 0-3.968 19.9 50.412 50.412 0 0 0 3.964 19.9 47.036 47.036 0 0 0 10.996 15.789 50.269 50.269 0 0 0 16.729 10.436 59.138 59.138 0 0 0 21.201 3.775zm166-102.808a60.12 60.12 0 0 1 23.971 4.667 47.669 47.669 0 0 1 18.082 13.486l.9 1.094-16.943 15.647-1.014-1.165a32.777 32.777 0 0 0-10.777-8.321 30.617 30.617 0 0 0-13.085-2.805c-17.845 0-30.308 12.463-30.308 30.308s12.463 30.308 30.308 30.308a30.374 30.374 0 0 0 13.08-2.821 32.508 32.508 0 0 0 10.772-8.44l1.013-1.185 16.949 15.646-.891 1.093a47.378 47.378 0 0 1-18.1 13.617 60.272 60.272 0 0 1-24.1 4.685 61.267 61.267 0 0 1-21.947-3.919 52.6 52.6 0 0 1-17.55-10.961 49.7 49.7 0 0 1-11.627-16.769 54.147 54.147 0 0 1-4.195-21.257 54.109 54.109 0 0 1 4.2-21.258 49.652 49.652 0 0 1 11.643-16.769 52.684 52.684 0 0 1 17.6-10.96A61.662 61.662 0 0 1 332.147.004zm38.819 18.983a44.793 44.793 0 0 0-16.039-11.558 57.145 57.145 0 0 0-22.782-4.417 58.676 58.676 0 0 0-20.957 3.72 49.7 49.7 0 0 0-16.6 10.335 46.669 46.669 0 0 0-10.944 15.762 51.128 51.128 0 0 0-3.959 20.083 51.166 51.166 0 0 0 3.957 20.087 46.719 46.719 0 0 0 10.929 15.763 49.619 49.619 0 0 0 16.558 10.334 58.281 58.281 0 0 0 20.874 3.716 57.3 57.3 0 0 0 22.9-4.438 44.486 44.486 0 0 0 16.063-11.681l-12.586-11.619a32.932 32.932 0 0 1-25.1 11.146 36.324 36.324 0 0 1-13.367-2.438 30.9 30.9 0 0 1-10.571-6.87 30.836 30.836 0 0 1-6.91-10.565 36.316 36.316 0 0 1-2.459-13.43 36.316 36.316 0 0 1 2.459-13.43 30.836 30.836 0 0 1 6.91-10.565 30.9 30.9 0 0 1 10.571-6.874 36.324 36.324 0 0 1 13.367-2.438 33.213 33.213 0 0 1 25.089 11.013zM0 1.704h28.122l29.265 68.7 29.672-68.7h26.132l-44.321 102.4H44.178l-.39-.906zm26.139 3H4.559l41.592 96.4H66.9l41.727-96.4H89.035l-31.668 73.3zm210.219-3h26v102.4h-26zm23 3h-20v96.4h20zm127.658-3h78.123v21.46h-52.256v18.584h46.15V62.64h-46.15v20h54.1v21.464h-79.962zm75.118 3h-72.113v96.4h73.964v-15.46h-54.1v-26h46.15V44.748h-46.15V20.164h52.254zM166.149 19.596a34.433 34.433 0 0 1 12.91 2.422 30.6 30.6 0 0 1 10.362 6.842 31.068 31.068 0 0 1 6.861 10.555 36.531 36.531 0 0 1 2.465 13.489 36.531 36.531 0 0 1-2.468 13.489 31.068 31.068 0 0 1-6.861 10.555 30.6 30.6 0 0 1-10.359 6.842 34.433 34.433 0 0 1-12.907 2.422 34.433 34.433 0 0 1-12.907-2.422 30.6 30.6 0 0 1-10.362-6.842 31.067 31.067 0 0 1-6.861-10.555 36.531 36.531 0 0 1-2.471-13.489 36.531 36.531 0 0 1 2.468-13.489 31.067 31.067 0 0 1 6.861-10.555 30.6 30.6 0 0 1 10.362-6.842 34.433 34.433 0 0 1 12.907-2.422zm0 63.616a31.45 31.45 0 0 0 11.788-2.208 27.616 27.616 0 0 0 9.353-6.173 28.085 28.085 0 0 0 6.2-9.543 33.547 33.547 0 0 0 2.257-12.384 33.547 33.547 0 0 0-2.258-12.386 28.085 28.085 0 0 0-6.2-9.543 27.616 27.616 0 0 0-9.353-6.173 31.45 31.45 0 0 0-11.788-2.206 31.45 31.45 0 0 0-11.789 2.208 27.616 27.616 0 0 0-9.353 6.173 28.085 28.085 0 0 0-6.2 9.543 33.547 33.547 0 0 0-2.255 12.384 33.547 33.547 0 0 0 2.258 12.386 28.085 28.085 0 0 0 6.2 9.543 27.616 27.616 0 0 0 9.35 6.171 31.45 31.45 0 0 0 11.79 2.208z" fill="#fff"/></svg>