<svg xmlns="http://www.w3.org/2000/svg" width="393.692" height="269" viewBox="0 0 393.692 269">
  <g id="グループ_5428" data-name="グループ 5428" transform="translate(-143 -158)">
    <path id="パス_16799" data-name="パス 16799" d="M0,0H175V63H0Z" transform="translate(143 158)" fill="#0e63c6"/>
    <path id="パス_16801" data-name="パス 16801" d="M0,0H175V63H0Z" transform="translate(143 364)" fill="#0e63c6"/>
    <path id="パス_16798" data-name="パス 16798" d="M211.64,2.34c4.42-1.924,8.112-3.848,11.284-7.54a24.22,24.22,0,0,0,6.136-16.068c0-12.428-9.932-20.176-21.32-20.176-15.288,0-25.48,13.052-25.48,24.232,0,9.62,7.54,16.484,11.6,16.484,5.512,0,13.364-14.2,14.976-33.228,9.776.78,12.012,8.528,12.012,12.74,0,5.408-3.328,14.144-14.612,16.224A33.718,33.718,0,0,1,211.64,2.34ZM200.1-32.4a45.478,45.478,0,0,1-4,17.888c-.572,1.352-1.56,3.692-2.808,3.692-1.092,0-3.328-3.016-3.328-7.02C189.956-22.516,194.064-30.16,200.1-32.4ZM30.628,43.988V40.816c.624-.156,1.3-.416,1.3-1.04s-.468-.78-.884-.936a48.716,48.716,0,0,0,3.744-5.148H49.816V26.568H2.236v7.124H24.284C22.048,37.124,14.508,47.836.416,51.632a19.874,19.874,0,0,1,5.46,7.02,47.907,47.907,0,0,0,16.484-10.4v24.8h8.268V44.716A69.907,69.907,0,0,1,44.72,59.12c1.04-1.144,5.772-5.46,6.24-5.876A87.544,87.544,0,0,0,35.776,38.788ZM83.46,35.98V33.432H72.644V31.508c1.924-.26,3.536-.572,6.136-1.144a2.455,2.455,0,0,0,1.3.572c.416,0,.52-.364.52-.624a1.224,1.224,0,0,0-.26-.676l-3.12-4.472c-1.3.572-6.708,2.184-16.172,2.184a33.225,33.225,0,0,1-4-.156,11.689,11.689,0,0,1,2.34,5.148c2.392.052,4-.052,6.708-.208v1.3H55.9v5.2H66.092v1.456H57.044V55.74h9.048v1.508h-9.36V61.98h9.36v2.288c-5.72.312-8.268.416-10.192.312l.832,5.98c.1.624.364,1.2.936,1.2s.884-.728,1.144-1.2a162.772,162.772,0,0,0,18.98-1.872c-.364.52-.884,1.144-1.04,1.352a30.314,30.314,0,0,1,6.032,3.588A39.18,39.18,0,0,0,87.568,66.3a24.344,24.344,0,0,1,2.756,6.4c1.716.1,5.876.1,8.268-2.288,3.952-3.952,3.952-18.512,3.952-34.424h-8.58V27.712c.728-.26,1.3-.624,1.3-1.092,0-.624-.468-.832-1.3-.884l-7.124-.364V35.98Zm-.884,7.748h4.056C85.644,56.052,81.64,62.656,80.184,65.1c.26-.988.364-1.456.572-2.132-2.288.364-5.252.624-8.112.832V61.98h8.892V57.248H72.644V55.74h9.048V40.088H72.644V38.632h9.932ZM63.232,46.172V44.2h2.86v1.976Zm2.86,3.484v1.976h-2.86V49.656Zm6.552-3.484V44.2H75.5v1.976Zm2.86,3.484v1.976h-2.86V49.656Zm19.864-5.928c.156,5.72-.1,14.4-1.664,19.812-.52,1.924-1.092,2.392-2.34,2.392a14.667,14.667,0,0,1-3.276-.624c2.288-4.94,4.42-10.192,5.356-21.58Zm34.112,5.044c.1-.312.26-.728.416-1.248.832-.208,1.04-.312,1.04-.676,0-.312-.208-.416-.572-.572l-3.328-1.2h28.7V38.944H145.6c.988-1.872,1.3-2.548,1.56-3.068.208,0,.988-.052.988-.676,0-.416-.312-.52-1.612-.728h8.684v-5.98H137.8V26.516c.624-.52.78-.624.78-.936,0-.468-.572-.52-.832-.52l-8.216-.364v3.8H112.008v5.98h8.216a23.833,23.833,0,0,1,2.652,4.472H112.008V51.112c0,4.732,0,14.2-4.836,19.448a24.044,24.044,0,0,1,6.344,3.224c4.42-5.616,5.408-14.2,5.72-18.876a26.662,26.662,0,0,1,4.784,2.86,26.75,26.75,0,0,0,2.444-3.172h7.644V57.4h-9.672v5.772h9.672v3.016H118.144V72.12h38.272V66.192H141.492V63.176h9.1V57.4h-9.1V54.6h12.22V48.772h-12.22V47.264c.468-.364.78-.624.78-.884,0-.416-.468-.468-.78-.52l-7.384-.728v3.64Zm9.776-14.3a36.676,36.676,0,0,1-2.288,4.472H131.2a40.66,40.66,0,0,0-2.288-4.472ZM119.34,45.08h4.42a18.973,18.973,0,0,1-4.472,7.9c.052-.624.052-.936.052-1.144Zm80.5-2.392a45.694,45.694,0,0,0,7.124,3.38c.1-.26,2.392-4.836,5.148-6.5a46.224,46.224,0,0,1-20.7-12.532c.364-.1,1.04-.364,1.04-.936,0-.468-.364-.624-.676-.676L182.52,24.28c-2.86,5.72-13.156,13.884-21.06,16.172a28.72,28.72,0,0,1,5.772,6.24,48.014,48.014,0,0,0,6.292-3.328v4.264h26.312Zm-22.672-1.924a89.776,89.776,0,0,0,9.256-8.372,68.6,68.6,0,0,0,10.244,8.372Zm-10.5,31.564c.052.364.26.832.676.832.572,0,.78-.52,1.2-1.456,12.48-.78,24.024-2.34,30-3.328a58.287,58.287,0,0,1,3.64,5.2,30.564,30.564,0,0,1,6.032-5.512,63.311,63.311,0,0,0-10.816-11.7H208.1V49.5H165.36v6.864h11.128a61.14,61.14,0,0,1-3.276,7.592c-4.576.156-6.6.208-8.112.26Zm23.088-12.844c.988.832,1.82,1.56,3.276,2.86-2.548.312-5.668.676-10.92,1.092,1.144-2.028,2.288-4,3.224-6.084,1.092-.208,1.248-.52,1.248-.988h6.76Zm48.568-19.24c.1-.26.78-1.612.936-1.924L235.924,35.1h-4.992V27.244c.624-.416.832-.676.832-.936,0-.572-.52-.676-.832-.676l-7.7-.208V35.1h-6.448v7.228h11.44c-1.82,4.212-8.372,10.556-13.884,13.728a15.027,15.027,0,0,1,4.68,6.448c1.248-.884,2.028-1.508,4.212-3.276V73.056h7.7V55.064a29.031,29.031,0,0,0,5.408,4.784,23.118,23.118,0,0,1,4.784-5.668,45.182,45.182,0,0,1-7.28-6.344,35.677,35.677,0,0,0,3.9-6.448v6.4h8.58V64.84H234.26v7.176h30V64.84h-9.88V47.784h8.372v-7.54h-8.372V27.14c.52-.156,1.04-.364,1.04-.832a.576.576,0,0,0-.624-.52l-8.476-.364v14.82ZM278.356,57.3a7.358,7.358,0,1,0,7.332,7.332A7.357,7.357,0,0,0,278.356,57.3Zm0,3.224a4.108,4.108,0,1,1-4.108,4.108A4.116,4.116,0,0,1,278.356,60.524Zm-270.5,66.14a34.072,34.072,0,0,1,6.4,3.8,30,30,0,0,1-11.6,6.292c3.38,2.5,4.264,3.484,5.356,5.512a37.567,37.567,0,0,0,11.8-7.124,47.259,47.259,0,0,1,6.344,6.708,38.709,38.709,0,0,1,6.084-4.992,64.356,64.356,0,0,0-7.124-7.124c1.092-1.352,3.12-4.16,4.16-5.668.988.1,1.716.156,1.716-.468,0-.364-.468-.676-.936-.936l-4.42-2.548H35.36c-.052,17.264,7.072,22.256,10.816,22.256,3.848,0,5.252-6.76,5.668-9a15.458,15.458,0,0,1-5.616-5.044c-.1.832-.416,3.9-.988,3.9s-2.132-4-2.132-11.284a49.265,49.265,0,0,1,.572-7.384H5.044v6.552H22.828a28.923,28.923,0,0,1-3.588,5.2,43.7,43.7,0,0,0-6.5-3.8ZM16.64,98.116c.1-.26.26-.572.364-.884.676-.208,1.2-.364,1.2-.78,0-.468-.52-.572-.884-.676L9.672,93.748A37.363,37.363,0,0,1,1.508,108.62c3.692,1.56,4.68,2.132,6.5,3.64a40.122,40.122,0,0,0,5.72-8.164H47.58v-5.98Zm28.236,7.748H13.1v5.876H44.876ZM72.8,102.432h6.968V95.724H55.744v6.708H62.92v3.328h-6.4v36.4h5.824v-2.548H73.684v2.028h5.824V105.76H72.8Zm-10.452,23.5v-2.7a10.45,10.45,0,0,1,1.82,1.3c2.964-3.692,3.016-7.436,3.12-12.688h1.248v8.164c0,2.756.52,3.744,3.068,3.744h2.08v2.184Zm6.708-20.176H66.82v-3.328h2.236Zm-6.708,28.08v-2.6H73.684v2.6Zm9.724-22h1.82v6.448c-1.508,0-1.82,0-1.82-1.508Zm-9.932,0h1.716c0,4.992-.312,6.344-1.716,8.008Zm32.708,7.592V121.2h7.8V95.724H81.328v6.708h13.52v10.036H81.588v23.088c0,2.548.624,5.824,5.876,5.824h9.048c6.6,0,7.28-4.68,7.956-10.3a10.286,10.286,0,0,1-6.916-3.536,20.649,20.649,0,0,1-1.04,5.772c-.364.728-.78,1.4-2.548,1.4H90.688c-1.976,0-1.976-1.092-1.976-2.652V119.436Zm22.88-24.6c-.1.624-.1.884-.364,2.028A50.884,50.884,0,0,0,119.34,129l7.436-.884a40.346,40.346,0,0,1,5.356-13.156,37.558,37.558,0,0,1-5.2-4.316,11.916,11.916,0,0,0-1.612,2.964c-.624,1.508-.78,1.924-1.2,2.756a19.733,19.733,0,0,1-.468-4.628,39.728,39.728,0,0,1,2.288-13.26c.364-.052,1.248-.208,1.248-.884,0-.572-.52-.728-1.456-.936Zm22.516-.364c1.664,6.188,1.976,12.636,1.976,19.032,0,7.644-1.2,16.64-13.676,22.672,1.144.624,3.588,1.872,6.76,6.084,15.132-8.684,15.652-22.048,15.652-28.6,0-2.028-.1-4.212-.26-6.084-.1-1.612-.78-9.516-.832-11.336.364-.1.832-.208.832-.78,0-.676-.676-.728-1.2-.728ZM208,95.1c-4.888,1.56-13.312,2.964-20.852,3.8a168.5,168.5,0,0,1-23.14,1.2l1.2,9.776a141.771,141.771,0,0,1,21.528-3.276c-2.132,1.352-9.568,8.268-9.568,17.888,0,12.428,14.924,16.588,19.136,17.732a70.13,70.13,0,0,1,3.9-9.464c-7.072-.156-14.716-3.12-14.716-9.152,0-8.424,11.128-19.968,23.972-19.76Zm-5.512,15.236a38.5,38.5,0,0,1,4.628,5.876c1.612-1.456,2.5-2.236,3.8-3.224a33,33,0,0,0-4.628-5.46Zm-5.46,3.692a42.015,42.015,0,0,1,4.628,5.876c1.82-1.508,2.548-2.08,4-3.12a32.272,32.272,0,0,0-4.836-5.564Zm48.36-18.408c-.052,3.38-.052,7.956-.052,10.14a55.115,55.115,0,0,1-9.776-.364v8.164a38.45,38.45,0,0,0,3.848.156c.884,0,3.016,0,5.98-.26.1,3.016.156,3.692.572,9.62-6.76-.156-12.9,2.184-12.9,8.372,0,4.836,3.9,9.1,11.7,9.1,3.276,0,9.932-.78,10.14-7.436a18.377,18.377,0,0,1,5.564,3.952c1.144-2.444,2.7-5.824,3.536-7.332-1.924-1.872-5.876-4-9.88-5.356a84.037,84.037,0,0,1-.832-11.96c4.316-.78,6.708-1.352,7.9-1.664V102.9a47,47,0,0,1-7.7,1.924,57.5,57.5,0,0,1,.52-6.24c.468-.052,1.2-.208,1.2-.832,0-.468-.416-.52-.676-.572Zm1.56,34.476a1.427,1.427,0,0,1,.1.676c0,2.548-3.12,2.548-3.536,2.548-1.664,0-3.38-.572-3.38-1.924,0-1.612,2.5-1.976,3.64-1.976A7.374,7.374,0,0,1,246.948,130.1ZM221.52,95.776a93.7,93.7,0,0,0-3.12,23.816,73.365,73.365,0,0,0,2.808,20.956l6.968-1.3c-.052-6.188,3.276-11.232,4.316-12.74a21.79,21.79,0,0,1-3.744-5.148c-.676,1.04-1.768,2.7-2.444,3.692a36.829,36.829,0,0,1-.364-5.2,71.781,71.781,0,0,1,3.12-20.02c.468-.052,1.456-.156,1.456-.78,0-.364-.26-.572-.676-.728Zm78.26,17.368a10.117,10.117,0,0,0-3.64,7.228c0,.416.208,4.16.26,4.524-.936-.052-1.976-.156-3.432-.156-10.5,0-10.712,7.228-10.712,8.216,0,4.888,4.108,8.58,12.376,8.58,5.98,0,9.412-1.456,10.4-6.344a46.4,46.4,0,0,1,5.98,4.368,51.853,51.853,0,0,1,4.784-6.24,55.564,55.564,0,0,0-11.024-6.344,36.905,36.905,0,0,1-.52-5.1,7.718,7.718,0,0,1,1.872-5.1Zm-2.288,18.824c-.156,1.3-.364,3.016-3.9,3.016-2.184,0-3.692-.676-3.692-1.924,0-1.4,1.872-2.132,3.328-2.132A10.1,10.1,0,0,1,297.492,131.968Zm-24.024-21.424c1.612,0,6.6-.156,7.8-.26a93.24,93.24,0,0,1-10.5,20.54,41.394,41.394,0,0,1,7.8,3.12,69.252,69.252,0,0,0,6.084-11.44c2.808-6.4,4.576-11.18,5.3-13.312a68.814,68.814,0,0,0,8.32-1.82,54.915,54.915,0,0,1-.156-7.748,44.521,44.521,0,0,1-5.616,1.716c.208-.676.884-3.068,1.04-3.432.26,0,1.092,0,1.092-.624,0-.416-.26-.624-.988-.832L285.48,93.9a80.312,80.312,0,0,1-1.924,8.84c-2.236.156-3.8.26-5.3.26a37.213,37.213,0,0,1-5.772-.416Zm25.74-.572a37.272,37.272,0,0,1,13.052,6.708,66.953,66.953,0,0,1,4.732-6.708c-2.34-1.872-5.408-4.056-13.676-6.76Zm54.7-17A137.41,137.41,0,0,1,334.1,111.636c-5.252,4.16-5.46,4.784-5.46,6.136a3.63,3.63,0,0,0,1.768,3.068c15.34,9.932,23.92,18.98,26.208,22.36a32.82,32.82,0,0,1,5.98-7.02c-2.392-3.016-4.888-5.668-10.764-10.192-4.68-3.588-9.464-6.76-9.62-6.864-2.028-1.144-2.236-1.3-2.236-1.82,0-.416.156-.624,1.82-2.132,1.924-1.716,4.836-4.212,7.228-6.24,1.768-1.508,10.244-8.112,11.284-9.1a3.083,3.083,0,0,0,.884.208.553.553,0,0,0,.624-.572c0-.312-.208-.52-.52-.78Zm39.78,42.276a67.6,67.6,0,0,0-11.388-8.736l-5.044,5.564a41.913,41.913,0,0,1,10.556,8.944ZM200.98,162.592a38.741,38.741,0,0,1-2.756,6.812c-.832.052-1.456.052-2.964.052-3.536,0-6.552-.26-8.164-.416l-.052,7.54c2.236.052,4.524.052,7.332-.052a110.89,110.89,0,0,1-10.556,13.988l7.228,4.108c2.86-4.628,6.5-10.452,11.908-10.452a3.772,3.772,0,0,1,3.9,2.6c-5.668,2.964-13.936,8.112-13.936,14.248,0,9.2,13.52,9.2,17,9.2a64.545,64.545,0,0,0,14.508-1.508,32.652,32.652,0,0,1,.988-8.268A58.437,58.437,0,0,1,208.78,203c-2.652,0-7.956-.156-7.956-2.5,0-2.132,3.276-4.316,6.5-6.292a45.051,45.051,0,0,1-.364,5.928,23.218,23.218,0,0,1,3.016-.1c1.664,0,3.536,0,5.2.1.052-1.4.156-2.86.156-5.2,0-1.56-.052-3.172-.156-4.68a123.824,123.824,0,0,1,11.856-4.212l-3.068-8.32c-1.924,1.092-2.808,1.456-10.5,5.148a9.135,9.135,0,0,0-7.592-4.42,9.854,9.854,0,0,0-4.524,1.04c1.3-2.288,1.4-2.5,2.028-3.588,6.136-.728,7.072-.884,14.82-2.236v-7.7a55.951,55.951,0,0,1-10.764,2.444l1.2-2.548c.364,0,1.3-.052,1.3-.78s-.728-.884-1.04-.936ZM243.672,195.3A7.358,7.358,0,1,0,251,202.632,7.357,7.357,0,0,0,243.672,195.3Zm0,3.224a4.108,4.108,0,1,1-4.108,4.108A4.116,4.116,0,0,1,243.672,198.524Z" transform="translate(143 210)" fill="#1a1a1a"/>
    <path id="パス_16800" data-name="パス 16800" d="M15.5-38.324a36.614,36.614,0,0,1-2.912,6.188c-.208-.156-1.2-.936-1.4-1.092,2.028-3.484,2.392-4.108,3.9-7.176,1.248-.208,1.612-.26,1.612-.884a.728.728,0,0,0-.468-.624L9.984-44.3A35.608,35.608,0,0,1,6.5-36.66a15.4,15.4,0,0,0-1.352-.832l-3.64,6.24a49.37,49.37,0,0,1,7.124,5.46C7.54-23.92,7.02-23.036,6.24-21.944a47.364,47.364,0,0,1-4.784.052l.884,6.6c.052.416.208.936.832.936S4-14.924,4.264-15.7c2.08-.1,4.42-.364,4.888-.416v3.588L9.1-12.584,3.432-13.52C3.224-10.244,2.184-4.212.78-1.092A12.51,12.51,0,0,1,6.188.52C6.76-1.144,7.748-4,8.58-11.284a2.775,2.775,0,0,0,.572-.208V4.056h7.02V-17c.208-.052.364-.052.884-.156.052.364.156,1.04.208,1.4a40.311,40.311,0,0,1,5.46-2.028,51.894,51.894,0,0,0-2.756-10.14l-4.42,1.872C17.576-29.12,17.992-29.8,20.8-34.58c1.248-.312,1.352-.78,1.352-.936,0-.26-.208-.468-1.092-.78Zm-.208,12.688c.156.52.624,2.288.988,3.744-2.184.156-2.86.208-3.64.26ZM35-12.48a26.246,26.246,0,0,1,2.288,3.068,49.139,49.139,0,0,1,4.576-4.42,28.492,28.492,0,0,0-3.588-4.42c.572-.052,3.484-.312,4.16-.364.416.988.728,1.664,1.3,3.328a38.149,38.149,0,0,1,6.136-3.64,51.974,51.974,0,0,0-7.488-11.6l-5.2,2.7A38.591,38.591,0,0,1,39.312-24.6c-1.768.1-3.016.208-5.512.312.676-1.092,3.588-6.76,4.264-8.008,1.04-.156,1.456-.208,1.456-.884A.831.831,0,0,0,38.9-33.9l-7.28-2.5a47.945,47.945,0,0,1-4.732,12.428c-.572.052-3.536.156-4.212.208l1.56,6.656c.156.78.468,1.092.884,1.092.728,0,1.04-.676,1.248-1.092,1.248-.156,7.54-.728,9-.884l-2.808,2.7c.572.624.832.884,1.4,1.508l-5.876-.364v2.808l-5.252-1.092c-.156.676-.26,1.3-.52,2.392-.052-.156-.624-3.744-.78-5.616l-5.1,1.3A99.75,99.75,0,0,0,17.94-4.264a22.881,22.881,0,0,1,2.808-1.092,21.356,21.356,0,0,1-2.184,4.108,12.288,12.288,0,0,1,5.46,2.7,39.269,39.269,0,0,0,3.9-11.908l.156-.052V-.78c0,4.888,2.964,4.888,7.8,4.888,5.46,0,6.24-1.04,7.956-7.436.572,1.716.832,2.444,1.092,3.328a20.511,20.511,0,0,1,5.824-3.016A44.373,44.373,0,0,0,46.384-13.1L40.56-10.4a38.192,38.192,0,0,1,3.068,6.448A8.456,8.456,0,0,1,37.96-6.6a14.4,14.4,0,0,1-.572,2.548c-.468,1.4-.52,1.82-1.4,1.82C35-2.236,35-3.12,35-3.432ZM26.832-43.628c-.728,2.444-1.924,5.72-7.124,12.272a15.244,15.244,0,0,1,5.564,3.484,64.086,64.086,0,0,0,7.436-11.752c.936-.1,1.612-.26,1.612-.832,0-.364-.208-.468-.78-.676Zm10.244,3.12a43.1,43.1,0,0,0,7.9,11.076,14.138,14.138,0,0,1,5.72-3.9,45.938,45.938,0,0,1-7.956-10.66ZM91.312-25.272a69.093,69.093,0,0,0,9.36,5.668,18.985,18.985,0,0,1,4.888-6.708c-7.488-2.756-18.3-10.3-21.216-15.548.624-.468.832-.676.832-.988,0-.468-.572-.624-.832-.624l-9.36-.676C72.54-39.884,67.132-31.1,53.768-25.636a31.229,31.229,0,0,1,5.408,6.552,56.344,56.344,0,0,0,8.58-5.512v2.86H91.312Zm-19.084-3.12c2.444-2.184,2.652-2.444,7.124-7.592A45.785,45.785,0,0,0,87.1-28.392ZM88.088,1.872V4.16h7.7V-18.512h-32.5V4.16h7.644V1.872ZM70.928-4.94v-6.812h17.16V-4.94Zm56.108-38.584c.052,3.016.052,3.952,0,9.1H111.28v7.54h15.548c-.364,5.564-.936,9.724-3.952,14.352A26.962,26.962,0,0,1,108.888-1.976a21.867,21.867,0,0,1,6.084,6.136c12.584-6.136,18.564-14.82,19.864-31.044h12.012a123.875,123.875,0,0,1-.884,17.056c-.78,4.888-1.924,5.252-3.952,5.252a28.861,28.861,0,0,1-6.708-.78,19.222,19.222,0,0,1,3.588,8.944c6.136,0,12.116-.052,13.936-6.24.988-3.276,2.392-11.6,2.392-31.772H135.3c0-.312.156-5.98.156-6.708.884-.416,1.248-.728,1.248-1.2,0-.676-.78-.78-1.248-.78Z" transform="translate(151 209)" fill="#fff"/>
    <path id="パス_16802" data-name="パス 16802" d="M17.056-30.524V-3.172c0,6.344,3.744,6.344,6.968,6.344H34.06c5.252,0,8.008-.26,9.984-9.828A16.327,16.327,0,0,1,37.18-10.3c-.936,6.344-1.976,6.344-4.316,6.344H27.352c-2.132,0-2.132-.728-2.132-2.288V-28.184c.572-.208,1.248-.416,1.248-1.04,0-.676-.832-.728-1.248-.78ZM6.864-27.04A43.961,43.961,0,0,1,.572-8.944c4.212.572,5.876.988,8.32,2.34,2.444-3.692,4.524-11.908,5.46-17.056.572-.1,1.612-.312,1.612-1.144,0-.78-.884-.936-1.4-1.04ZM18.3-38.22a58.109,58.109,0,0,1,13.572,7.592,37.846,37.846,0,0,1,4.42-6.656A62.1,62.1,0,0,0,22.152-44.72ZM34.268-25.948A60.011,60.011,0,0,1,43.784-9.88a29.815,29.815,0,0,1,7.488-3.8c-1.04-2.184-4.732-10.088-10.764-16.172ZM72.8-35.568h6.968v-6.708H55.744v6.708H62.92v3.328h-6.4V4.16h5.824V1.612H73.684V3.64h5.824V-32.24H72.8Zm-10.452,23.5v-2.7a10.45,10.45,0,0,1,1.82,1.3c2.964-3.692,3.016-7.436,3.12-12.688h1.248v8.164c0,2.756.52,3.744,3.068,3.744h2.08v2.184ZM69.056-32.24H66.82v-3.328h2.236ZM62.348-4.16v-2.6H73.684v2.6Zm9.724-22h1.82v6.448c-1.508,0-1.82,0-1.82-1.508Zm-9.932,0h1.716c0,4.992-.312,6.344-1.716,8.008Zm32.708,7.592V-16.8h7.8v-25.48H81.328v6.708h13.52v10.036H81.588V-2.444c0,2.548.624,5.824,5.876,5.824h9.048c6.6,0,7.28-4.68,7.956-10.3a10.286,10.286,0,0,1-6.916-3.536,20.649,20.649,0,0,1-1.04,5.772c-.364.728-.78,1.4-2.548,1.4H90.688c-1.976,0-1.976-1.092-1.976-2.652V-18.564Zm22.88-24.6c-.1.624-.1.884-.364,2.028a52.7,52.7,0,0,0-1.716,12.844A52.313,52.313,0,0,0,119.34-9l7.436-.884a40.346,40.346,0,0,1,5.356-13.156,37.557,37.557,0,0,1-5.2-4.316,11.916,11.916,0,0,0-1.612,2.964c-.624,1.508-.78,1.924-1.2,2.756a19.733,19.733,0,0,1-.468-4.628,39.728,39.728,0,0,1,2.288-13.26c.364-.052,1.248-.208,1.248-.884,0-.572-.52-.728-1.456-.936Zm22.516-.364c1.664,6.188,1.976,12.636,1.976,19.032,0,7.644-1.2,16.64-13.676,22.672,1.144.624,3.588,1.872,6.76,6.084,15.132-8.684,15.652-22.048,15.652-28.6,0-2.028-.1-4.212-.26-6.084-.1-1.612-.78-9.516-.832-11.336.364-.1.832-.208.832-.78,0-.676-.676-.728-1.2-.728Z" transform="translate(151 416)" fill="#fff"/>
  </g>
</svg>
