<svg xmlns="http://www.w3.org/2000/svg" width="317.13" height="255.984" viewBox="0 0 317.13 255.984">
  <g id="グループ_5430" data-name="グループ 5430" transform="translate(-140.521 -165.8)">
    <path id="パス_16808" data-name="パス 16808" d="M18.876-13.78a29.46,29.46,0,0,0,2.756,4.212,33.486,33.486,0,0,1,5.1-5.46c-1.092-1.092-3.952-3.9-7.852-11.388v-.832h6.76v-7.28h-6.76v-6.864c.676-.416.884-.624.884-.988,0-.52-.52-.624-.884-.624l-7.488-.364v8.84H2.912v7.28H10.4A45.03,45.03,0,0,1,.78-9.828,32.27,32.27,0,0,1,6.708-4.992a41.491,41.491,0,0,0,4.68-8.32v17h7.488Zm8.476-29.536V-4c0,1.924,0,7.488,7.02,7.488h8.372c6.448,0,7.384-3.484,8.476-9.932a22.251,22.251,0,0,1-7.176-3.38c-.572,6.656-1.612,6.656-3.172,6.656H37.648c-.78,0-2.34,0-2.34-2.86V-41.288c.884-.52.988-.572.988-.936s-.572-.52-.988-.572ZM99.424-18.1c1.56-2.132,1.716-2.392,2.6-3.64.884.052,1.508.1,1.508-.624a.815.815,0,0,0-.468-.728l-4.316-2.444h3.484V-42.38H75.92v16.848h3.432l-4.524,2.7A21.946,21.946,0,0,1,78.312-18.1H75.3v6.4h3.9c-.52,6.864-5.148,8.684-9.724,10.4C70.72-.52,72.436.624,75.14,4.316,82.42,1.352,85.488-5.668,86.216-9.1c.312-.1.728-.26.728-.624,0-.416-.312-.52-.572-.572L81.12-11.7h6.864v9.88c0,1.248,0,5.1,4.784,5.1h5.616c2.028,0,4.628-.1,6.24-6.968A21.6,21.6,0,0,1,98.7-7.852c-.416,3.588-.572,4.576-2.132,4.576-1.508,0-1.612-.884-1.612-1.924v-6.5h8.06v-6.4Zm-3.9-14.248v1.82H82.732v-1.82ZM92.4-18.1V-24.44c1.04-.572,1.092-.728,1.144-1.092h3.276a28.761,28.761,0,0,1-4,5.356A27.807,27.807,0,0,1,96.2-18.1Zm-10.712,0a20.21,20.21,0,0,1,3.172-1.872,42.58,42.58,0,0,0-3.64-5.564h4.108V-18.1Zm1.04-17.732v-1.716H95.524v1.716Zm-20.644,6.76V3.692h5.72v-14.3a11.923,11.923,0,0,1,1.4,5.044c5.044-.052,5.044-1.768,5.044-3.952v-26.1H67.808v-6.344c.52-.1,1.3-.208,1.3-.832a.553.553,0,0,0-.624-.572l-6.4-.364v8.112H55.432V-4.94h5.252V-29.068Zm7.124,0V-14.3a3.229,3.229,0,0,1-.156,1.508c-.208.26-.52.208-1.248.156V-29.068Zm66.56,6.136a57.322,57.322,0,0,0,10.816-4.212,2.514,2.514,0,0,0,1.092.312.655.655,0,0,0,.676-.676,1.405,1.405,0,0,0-.624-1.04l-4.472-4.316h5.46v5.824h7.7V-39.156h-19.24v-3.172c.78-.26,1.248-.416,1.248-.988s-.728-.624-1.248-.624l-8.112-.26v5.044H109.928V-27.04h7.592v-5.824h24.44A52.027,52.027,0,0,1,115.6-26.832a13.755,13.755,0,0,1,4.108,6.968c3.536-.364,5.512-.728,8.268-1.248v3.432l-18.824,1.716.416,7.072,18.408-1.768V-4c0,7.54,5.512,7.748,8.736,7.748H147.94c7.384,0,8.736-5.1,9.568-9.568a14.342,14.342,0,0,1-7.436-4.108c-.26,3.068-.572,7.02-4.42,7.02H138.84c-2.7,0-3.068-.78-3.068-3.9v-4.576l21.424-2.08-.78-6.812-20.644,1.872Zm74.62-11.284v-6.24H190.58v-1.716c.468-.208.988-.52.988-.936,0-.52-.468-.676-.988-.676l-7.852-.364v3.692H163.072v6.24h13.572l-3.692.676a20,20,0,0,1,2.028,3.8H164.112V4.16h7.54V-13.728a10.056,10.056,0,0,1,3.64,3.432,4.832,4.832,0,0,0,.52-.26V1.56h6.812V.312H197.7v-3.12a9.084,9.084,0,0,1,1.872,5.564c0,.364,0,.676-.052,1.352,8.424,0,9.62-2.184,9.62-7.332v-26.52H199.056c.624-1.248.988-1.976,1.2-2.5.572-.052,1.248-.156,1.248-.728s-.468-.624-1.664-.832l-2.7-.416ZM201.916-4.628c0,1.2-.1,1.716-1.716,1.716-.572,0-1.456-.156-2.5-.26v-9.672H178.828a18.67,18.67,0,0,0,4.732-7.644c1.4-.312,1.4-.676,1.4-.884,0-.468-.728-.728-1.092-.832l-2.756-.884h5.3v5.1c0,2.444.988,3.536,4.056,3.536h6.656a4.9,4.9,0,0,0,4.784-2.964Zm-9.2-29.588a31.685,31.685,0,0,1-2.08,4.472h-9.1l1.872-.468a27.082,27.082,0,0,0-2.288-4ZM190.84-5.044h-8.216V-7.488h8.216Zm11.076-15.548a14.905,14.905,0,0,1-4.732-2.5h4.732Zm-4.784-2.5c-.416,1.924-.572,2.808-1.56,2.808h-1.56c-.988,0-1.04-.468-1.04-1.144v-1.664Zm-19.968,0a11.456,11.456,0,0,1-5.512,7.332v-7.332ZM245.388-42.38c-.052,3.38-.052,7.956-.052,10.14a55.116,55.116,0,0,1-9.776-.364v8.164a38.452,38.452,0,0,0,3.848.156c.884,0,3.016,0,5.98-.26.1,3.016.156,3.692.572,9.62-6.76-.156-12.9,2.184-12.9,8.372,0,4.836,3.9,9.1,11.7,9.1,3.276,0,9.932-.78,10.14-7.436a18.377,18.377,0,0,1,5.564,3.952c1.144-2.444,2.7-5.824,3.536-7.332-1.924-1.872-5.876-4-9.88-5.356a84.037,84.037,0,0,1-.832-11.96c4.316-.78,6.708-1.352,7.9-1.664V-35.1a47,47,0,0,1-7.7,1.924,57.5,57.5,0,0,1,.52-6.24c.468-.052,1.2-.208,1.2-.832,0-.468-.416-.52-.676-.572ZM246.948-7.9a1.427,1.427,0,0,1,.1.676c0,2.548-3.12,2.548-3.536,2.548-1.664,0-3.38-.572-3.38-1.924,0-1.612,2.5-1.976,3.64-1.976A7.374,7.374,0,0,1,246.948-7.9ZM221.52-42.224a93.7,93.7,0,0,0-3.12,23.816,73.365,73.365,0,0,0,2.808,20.956l6.968-1.3c-.052-6.188,3.276-11.232,4.316-12.74a21.79,21.79,0,0,1-3.744-5.148c-.676,1.04-1.768,2.7-2.444,3.692a36.829,36.829,0,0,1-.364-5.2,71.781,71.781,0,0,1,3.12-20.02c.468-.052,1.456-.156,1.456-.78,0-.364-.26-.572-.676-.728ZM286.572-2.756a67.6,67.6,0,0,0-11.388-8.736L270.14-5.928A41.913,41.913,0,0,1,280.7,3.016ZM44.252,48.98c1.56-1.768,3.484-4.108,5.356-6.656l-2.5-2.548H34.736a29.415,29.415,0,0,0,1.872-3.016h13v-6.4H39.676c.208-.52.52-1.352.676-1.716.624-.156,1.456-.312,1.456-.936,0-.364-.26-.52-1.04-.78l-5.98-1.82a32.1,32.1,0,0,1-3.9,9.464V31.3H26.832V27.4c.884-.572,1.092-.832,1.092-1.2,0-.572-.468-.676-.936-.676l-7.436-.208V31.3H13.988v.156a46.112,46.112,0,0,0-7.8-6.448L1.82,29.792C3.64,31.144,5.2,32.444,9.2,37.28c1.56-1.664,4.316-4.472,4.784-4.94v5.2h3.8c.052,9.2.052,14.56-3.38,20.488V45.08H2.236v6.344H7.124V61.98a33.181,33.181,0,0,1-6.24,3.848l3.328,6.4c.156.312.416.832.936.832.624,0,.676-.572.676-1.352.728-.884,3.952-3.536,5.252-4.628,2.236,3.224,6.084,5.148,13.676,5.148H49.244a20.107,20.107,0,0,1,2.184-7.176C43.524,65.776,37.96,66.3,31.2,66.3c-11.492,0-16.8-.1-16.8-4.992v-.832a11.017,11.017,0,0,1,3.9,2.808,19.532,19.532,0,0,0,2.08-4.16,21.129,21.129,0,0,1,1.56,5.564c5.044.1,6.5-1.352,7.436-3.016,1.2-2.184,1.352-7.436,1.664-19.968.312.26.936.676,1.3.988.26-.26.728-.832,1.04-1.2V45.6h5.824A7.11,7.11,0,0,1,38.22,47H37.6v2.08h-5.46v6.084H37.6v1.508c0,1.144-.156,2.028-1.352,2.028a13.48,13.48,0,0,1-2.5-.208,19.434,19.434,0,0,1,2.236,6.448c7.124.312,8.268-2.652,8.268-5.772v-4h5.356V49.084H44.252Zm-20.28-8.112c.052-.52.1-2.34.1-3.328h4.836A23.455,23.455,0,0,1,27.2,39.516a13.886,13.886,0,0,1,2.6,1.352ZM25.428,47a53.992,53.992,0,0,1-.624,9.724A2.158,2.158,0,0,1,22.36,58.6a8.554,8.554,0,0,1-1.664-.26A45.687,45.687,0,0,0,23.5,47Zm46.54-20.228a29.883,29.883,0,0,1-15.912,5.772l2.444,8.58a35.864,35.864,0,0,0,6.708-2.34c-.572,1.092-5.2,10.088-5.2,17.056,0,7.436,5.2,15.5,17.056,15.5,15.912,0,17.264-14.248,17.264-19.084a32.069,32.069,0,0,0-.676-6.968,45.477,45.477,0,0,0,6.6,6.76,76.93,76.93,0,0,1,4.368-6.76c-7.8-5.772-12.688-10.972-16.12-18.512l-7.7,4c4.108,6.864,6.24,12.636,6.24,19.448,0,5.564-2.5,13.364-10.608,13.364-4.628,0-8.164-2.756-8.164-9.256a31.112,31.112,0,0,1,9.152-21.528ZM93.236,30.1c1.248,1.508,3.12,4.42,4.16,6.032,2.08-1.924,2.34-2.132,3.484-3.068a55.215,55.215,0,0,0-4.056-5.46Zm4.472-3.172a45.638,45.638,0,0,1,4.056,5.3c.52-.416,3.068-2.444,3.692-2.912-1.508-1.924-2.756-3.38-4.42-5.2Zm32.084-2.5c-.52,1.3-3.016,7.644-3.536,9.048a65.3,65.3,0,0,1-9.2-2.86l-1.56,8.06a45.243,45.243,0,0,0,7.748,2.6c-.988,2.808-1.352,3.952-1.56,4.628a48.814,48.814,0,0,1-7.02-2.236l-1.768,7.7a43.568,43.568,0,0,0,6.76,1.924,25.581,25.581,0,0,0-.78,6.292c0,7.644,5.772,13.052,16.224,13.052,6.812,0,18.876-2.652,18.876-14.092,0-4.576-2.34-9.516-3.588-11.8a24.915,24.915,0,0,1-7.852,2.808c.26.364,2.652,4.784,2.652,8.112,0,7.54-7.852,7.54-10.088,7.54-2.548,0-8.424,0-8.424-6.344a17,17,0,0,1,.572-4.212c4.888.728,8.476,1.04,11.648,1.248.416-1.612,1.248-4.888,2.236-7.7a79.84,79.84,0,0,1-11.544-.78c.52-1.3,1.248-3.172,1.872-4.576a63.734,63.734,0,0,0,9.828.468,38.156,38.156,0,0,1,2.288-8.216c-.728.052-1.456.1-2.548.1s-3.744-.1-6.5-.364c1.872-3.536,2.5-4.576,3.068-5.46.624-.052,1.508-.208,1.508-.936,0-.468-.312-.624-.884-.832Zm60.476,40.2H179.036V71.6H208.78V64.632H197.912v-17h12.064V40.3H197.912V27.4c1.2-.156,1.352-.728,1.352-.988,0-.364-.416-.624-1.3-.676l-7.7-.312V40.3H177.32v7.332h12.948ZM175.656,39.724c.364-.1,1.144-.364,1.144-.884,0-.468-.364-.572-1.456-.988.312-.676,1.04-2.184,1.4-3.172,1.872-4.888,2.08-5.408,2.34-5.98,1.2-.208,1.56-.312,1.56-.884s-.52-.728-1.144-.884l-6.864-1.924c-.988,4.056-4.888,15.028-11.96,22.412a19.526,19.526,0,0,1,5.564,4.888c.52-.572.988-1.04,1.716-1.976V72.9h7.7Zm85.8,13.572v-6.24H244.192V45.6h13V35.044h-13V33.588h19.656v-5.46H244.192v-.884c.832-.416,1.144-.52,1.144-.988a.711.711,0,0,0-.78-.676l-8.06-.312v2.86H216.684v5.46H236.5v1.456H223.288V45.6H236.5v1.456H220.272v4.576H236.5V53.3H216.684v4.888H236.5v1.768H220.272v5.2H236.5c0,1.092,0,1.612-1.508,1.612a41.175,41.175,0,0,1-4.42-.416,19.569,19.569,0,0,1,2.444,6.5c.676.052,1.716.1,2.756.1,7.748,0,8.424-1.82,8.424-4.472V65.152h9.568v1.664h7.7V58.184h2.6V53.3Zm-17.264,6.656V58.184h9.568v1.768Zm0-6.656V51.632h9.568V53.3ZM250.484,39.2v2.028h-6.292V39.2Zm-20.332,2.028V39.2H236.5v2.028Zm60.32-16.8c-.52,1.3-3.016,7.644-3.536,9.048a65.3,65.3,0,0,1-9.2-2.86l-1.56,8.06a45.243,45.243,0,0,0,7.748,2.6c-.988,2.808-1.352,3.952-1.56,4.628a48.814,48.814,0,0,1-7.02-2.236l-1.768,7.7a43.568,43.568,0,0,0,6.76,1.924,25.581,25.581,0,0,0-.78,6.292c0,7.644,5.772,13.052,16.224,13.052,6.812,0,18.876-2.652,18.876-14.092,0-4.576-2.34-9.516-3.588-11.8a24.915,24.915,0,0,1-7.852,2.808c.26.364,2.652,4.784,2.652,8.112,0,7.54-7.852,7.54-10.088,7.54-2.548,0-8.424,0-8.424-6.344a17,17,0,0,1,.572-4.212c4.888.728,8.476,1.04,11.648,1.248.416-1.612,1.248-4.888,2.236-7.7a79.84,79.84,0,0,1-11.544-.78c.52-1.3,1.248-3.172,1.872-4.576a63.735,63.735,0,0,0,9.828.468,38.156,38.156,0,0,1,2.288-8.216c-.728.052-1.456.1-2.548.1s-3.744-.1-6.5-.364c1.872-3.536,2.5-4.576,3.068-5.46.624-.052,1.508-.208,1.508-.936,0-.468-.312-.624-.884-.832ZM176.956,140.34c4.42-1.924,8.112-3.848,11.284-7.54a24.22,24.22,0,0,0,6.136-16.068c0-12.428-9.932-20.176-21.32-20.176-15.288,0-25.48,13.052-25.48,24.232,0,9.62,7.54,16.484,11.6,16.484,5.512,0,13.364-14.2,14.976-33.228,9.776.78,12.012,8.528,12.012,12.74,0,5.408-3.328,14.144-14.612,16.224A33.719,33.719,0,0,1,176.956,140.34ZM165.412,105.6a45.478,45.478,0,0,1-4,17.888c-.572,1.352-1.56,3.692-2.808,3.692-1.092,0-3.328-3.016-3.328-7.02C155.272,115.484,159.38,107.84,165.412,105.6ZM30.628,181.988v-3.172c.624-.156,1.3-.416,1.3-1.04s-.468-.78-.884-.936a48.715,48.715,0,0,0,3.744-5.148H49.816v-7.124H2.236v7.124H24.284c-2.236,3.432-9.776,14.144-23.868,17.94a19.874,19.874,0,0,1,5.46,7.02,47.907,47.907,0,0,0,16.484-10.4v24.8h8.268v-28.34a69.907,69.907,0,0,1,14.092,14.4c1.04-1.144,5.772-5.46,6.24-5.876a87.544,87.544,0,0,0-15.184-14.456ZM83.46,173.98v-2.548H72.644v-1.924c1.924-.26,3.536-.572,6.136-1.144a2.455,2.455,0,0,0,1.3.572c.416,0,.52-.364.52-.624a1.224,1.224,0,0,0-.26-.676l-3.12-4.472c-1.3.572-6.708,2.184-16.172,2.184a33.226,33.226,0,0,1-4-.156,11.689,11.689,0,0,1,2.34,5.148c2.392.052,4-.052,6.708-.208v1.3H55.9v5.2H66.092v1.456H57.044V193.74h9.048v1.508h-9.36v4.732h9.36v2.288c-5.72.312-8.268.416-10.192.312l.832,5.98c.1.624.364,1.2.936,1.2s.884-.728,1.144-1.2a162.772,162.772,0,0,0,18.98-1.872c-.364.52-.884,1.144-1.04,1.352a30.314,30.314,0,0,1,6.032,3.588,39.181,39.181,0,0,0,4.784-7.332,24.344,24.344,0,0,1,2.756,6.4c1.716.1,5.876.1,8.268-2.288,3.952-3.952,3.952-18.512,3.952-34.424h-8.58v-8.268c.728-.26,1.3-.624,1.3-1.092,0-.624-.468-.832-1.3-.884l-7.124-.364V173.98Zm-.884,7.748h4.056c-.988,12.324-4.992,18.928-6.448,21.372.26-.988.364-1.456.572-2.132-2.288.364-5.252.624-8.112.832v-1.82h8.892v-4.732H72.644V193.74h9.048V178.088H72.644v-1.456h9.932Zm-19.344,2.444V182.2h2.86v1.976Zm2.86,3.484v1.976h-2.86v-1.976Zm6.552-3.484V182.2H75.5v1.976Zm2.86,3.484v1.976h-2.86v-1.976Zm19.864-5.928c.156,5.72-.1,14.4-1.664,19.812-.52,1.924-1.092,2.392-2.34,2.392a14.667,14.667,0,0,1-3.276-.624c2.288-4.94,4.42-10.192,5.356-21.58Zm34.112,5.044c.1-.312.26-.728.416-1.248.832-.208,1.04-.312,1.04-.676,0-.312-.208-.416-.572-.572l-3.328-1.2h28.7v-6.136H145.6c.988-1.872,1.3-2.548,1.56-3.068.208,0,.988-.052.988-.676,0-.416-.312-.52-1.612-.728h8.684v-5.98H137.8v-1.976c.624-.52.78-.624.78-.936,0-.468-.572-.52-.832-.52l-8.216-.364v3.8H112.008v5.98h8.216a23.834,23.834,0,0,1,2.652,4.472H112.008v12.168c0,4.732,0,14.2-4.836,19.448a24.044,24.044,0,0,1,6.344,3.224c4.42-5.616,5.408-14.2,5.72-18.876a26.661,26.661,0,0,1,4.784,2.86,26.751,26.751,0,0,0,2.444-3.172h7.644V195.4h-9.672v5.772h9.672v3.016H118.144v5.928h38.272v-5.928H141.492v-3.016h9.1V195.4h-9.1V192.6h12.22v-5.824h-12.22v-1.508c.468-.364.78-.624.78-.884,0-.416-.468-.468-.78-.52l-7.384-.728v3.64Zm9.776-14.3a36.676,36.676,0,0,1-2.288,4.472H131.2a40.659,40.659,0,0,0-2.288-4.472ZM119.34,183.08h4.42a18.973,18.973,0,0,1-4.472,7.9c.052-.624.052-.936.052-1.144Zm80.5-2.392a45.692,45.692,0,0,0,7.124,3.38c.1-.26,2.392-4.836,5.148-6.5a46.224,46.224,0,0,1-20.7-12.532c.364-.1,1.04-.364,1.04-.936,0-.468-.364-.624-.676-.676l-9.256-1.144c-2.86,5.72-13.156,13.884-21.06,16.172a28.72,28.72,0,0,1,5.772,6.24,48.014,48.014,0,0,0,6.292-3.328v4.264h26.312Zm-22.672-1.924a89.778,89.778,0,0,0,9.256-8.372,68.6,68.6,0,0,0,10.244,8.372Zm-10.5,31.564c.052.364.26.832.676.832.572,0,.78-.52,1.2-1.456,12.48-.78,24.024-2.34,30-3.328a58.285,58.285,0,0,1,3.64,5.2,30.564,30.564,0,0,1,6.032-5.512,63.311,63.311,0,0,0-10.816-11.7H208.1V187.5H165.36v6.864h11.128a61.14,61.14,0,0,1-3.276,7.592c-4.576.156-6.6.208-8.112.26Zm23.088-12.844c.988.832,1.82,1.56,3.276,2.86-2.548.312-5.668.676-10.92,1.092,1.144-2.028,2.288-4,3.224-6.084,1.092-.208,1.248-.52,1.248-.988h6.76Zm48.568-19.24c.1-.26.78-1.612.936-1.924l-3.328-3.224h-4.992v-7.852c.624-.416.832-.676.832-.936,0-.572-.52-.676-.832-.676l-7.7-.208V173.1h-6.448v7.228h11.44c-1.82,4.212-8.372,10.556-13.884,13.728a15.027,15.027,0,0,1,4.68,6.448c1.248-.884,2.028-1.508,4.212-3.276v13.832h7.7V193.064a29.031,29.031,0,0,0,5.408,4.784,23.118,23.118,0,0,1,4.784-5.668,45.181,45.181,0,0,1-7.28-6.344,35.677,35.677,0,0,0,3.9-6.448v6.4h8.58V202.84H234.26v7.176h30V202.84h-9.88V185.784h8.372v-7.54h-8.372v-13.1c.52-.156,1.04-.364,1.04-.832a.576.576,0,0,0-.624-.52l-8.476-.364v14.82Zm40.04,17.056a7.358,7.358,0,1,0,7.332,7.332A7.357,7.357,0,0,0,278.356,195.3Zm0,3.224a4.108,4.108,0,1,1-4.108,4.108A4.116,4.116,0,0,1,278.356,198.524Z" transform="translate(143 210)" fill="#1a1a1a"/>
    <path id="パス_16809" data-name="パス 16809" d="M0,0H140V63H0Z" transform="matrix(0.996, -0.087, 0.087, 0.996, 140.521, 302.221)" fill="#0e63c6"/>
    <path id="パス_16810" data-name="パス 16810" d="M19.6-29.322A49.861,49.861,0,0,1,.7-8.478c3.51,2.808,4.644,3.834,5.886,6.21A65.061,65.061,0,0,0,14.85-9.99v6.426H22.9V4.05H31.05V-3.564h7.992V-9.936A63.635,63.635,0,0,0,47.25-2.268c1.242-2.322,2.322-3.348,5.886-6.21a50.947,50.947,0,0,1-18.9-20.844H51.624V-36.45H31.05v-6.642c.918-.594,1.134-.864,1.134-1.188,0-.27-.162-.648-1.512-.756L22.9-45.522v9.072H2.376v7.128ZM22.9-10.854h-7.29a61.218,61.218,0,0,0,7.29-10.26Zm8.154,0V-21.006a59.992,59.992,0,0,0,7.236,10.152Zm32.724-.918A35.382,35.382,0,0,1,70.416-7.83,31.15,31.15,0,0,1,58.374-1.3C61.884,1.3,62.8,2.322,63.936,4.428a39.011,39.011,0,0,0,12.258-7.4A49.077,49.077,0,0,1,82.782,4,40.2,40.2,0,0,1,89.1-1.188a66.831,66.831,0,0,0-7.4-7.4c1.134-1.4,3.24-4.32,4.32-5.886,1.026.108,1.782.162,1.782-.486,0-.378-.486-.7-.972-.972l-4.59-2.646h10.1C92.286-.648,99.684,4.536,103.572,4.536c4,0,5.454-7.02,5.886-9.342a16.052,16.052,0,0,1-5.832-5.238c-.108.864-.432,4.05-1.026,4.05s-2.214-4.158-2.214-11.718a51.161,51.161,0,0,1,.594-7.668H60.858v6.8H79.326a30.036,30.036,0,0,1-3.726,5.4,45.375,45.375,0,0,0-6.75-3.942ZM72.9-41.418c.108-.27.27-.594.378-.918.7-.216,1.242-.378,1.242-.81,0-.486-.54-.594-.918-.7l-7.938-2.106A38.8,38.8,0,0,1,57.186-30.51c3.834,1.62,4.86,2.214,6.75,3.78a41.664,41.664,0,0,0,5.94-8.478H105.03v-6.21Zm29.322,8.046H69.228v6.1h32.994Z" transform="matrix(0.996, -0.087, 0.087, 0.996, 158.039, 352.714)" fill="#fff"/>
  </g>
</svg>
