<svg xmlns="http://www.w3.org/2000/svg" width="122.704" height="64.012"><g data-name="グループ 5358" fill="#fff"><g data-name="グループ 5358"><path data-name="パス 16675" d="M90.688 57.799a1.289 1.289 0 0 0-.788-.257 1.049 1.049 0 0 0-.641.184 3.362 3.362 0 0 0-1.084 2.868 2.862 2.862 0 0 0 .789 2.39 1.314 1.314 0 0 0 .788.294 1.448 1.448 0 0 0 .888-.294 1.716 1.716 0 0 0 .592-1.471v-.7h-1.528v-.7h2.514v3.9h-.838l-.148-.662a2.273 2.273 0 0 1-1.627.662 2.322 2.322 0 0 1-1.429-.441 3.487 3.487 0 0 1-1.134-2.978 3.744 3.744 0 0 1 1.232-3.2 2.663 2.663 0 0 1 1.627-.551 2.422 2.422 0 0 1 1.479.4 2.15 2.15 0 0 1 .838 1.838h-1.035a1.641 1.641 0 0 0-.495-1.282z"/><path data-name="パス 16676" d="M99.197 57.431a1.6 1.6 0 0 1 .641 1.361 1.622 1.622 0 0 1-.641 1.324 2.266 2.266 0 0 1-.887.478l1.774 3.419h-1.183l-1.676-3.309h-1.381v3.309h-1.133v-7.169h2.465a3.292 3.292 0 0 1 2.021.587zm-.887 2.243a1.03 1.03 0 0 0 .394-.882 1.046 1.046 0 0 0-.444-.883 2.18 2.18 0 0 0-1.331-.368h-1.084v2.463h1.429a1.684 1.684 0 0 0 1.036-.33z"/><path data-name="パス 16677" d="M107.559 60.409q0 2.316-1.084 3.125a2.648 2.648 0 0 1-1.627.478 2.73 2.73 0 0 1-1.676-.478q-1.084-.808-1.084-3.125 0-2.279 1.084-3.088a2.734 2.734 0 0 1 1.676-.478 2.652 2.652 0 0 1 1.627.478q1.084.809 1.084 3.088zm-4.338 0q0 2.1.641 2.574a1.613 1.613 0 0 0 .986.331 1.544 1.544 0 0 0 .937-.331q.64-.478.641-2.574 0-2.059-.641-2.537a1.544 1.544 0 0 0-.937-.331 1.613 1.613 0 0 0-.986.331q-.642.479-.641 2.537z"/><path data-name="パス 16678" d="M109.856 56.843h1.134v5.258a.983.983 0 0 0 .346.845 1.718 1.718 0 0 0 1.035.257h.049a1.627 1.627 0 0 0 .986-.257.991.991 0 0 0 .394-.845v-5.258h1.134v5.258a1.777 1.777 0 0 1-.74 1.507 3.016 3.016 0 0 1-1.774.4h-.049a3.016 3.016 0 0 1-1.775-.4 1.779 1.779 0 0 1-.739-1.507z"/><path data-name="パス 16679" d="M121.965 57.358a1.982 1.982 0 0 1 0 3.089 3.066 3.066 0 0 1-1.873.515h-1.43v3.051h-1.134v-7.169h2.563a3.066 3.066 0 0 1 1.874.514zm-3.3.184v2.721h1.134a2.265 2.265 0 0 0 1.38-.367 1.332 1.332 0 0 0 0-1.985 2.269 2.269 0 0 0-1.38-.368z"/></g><path data-name="パス 16680" d="M63.884 22.421c2.471.394 3.99-1.407 6.067-1.855 7.7-2.192 16.746-3.429 24.891-2.022-13.707-.561-25 5.23-34.78 13.767.788-1.968.285-4.326-.223-6.236-2.471-4.157-7.361-4.5-11.518-3.88-19.948 4.271-35.9 21.522-48.322 38.038V39.001C15.17 27.648 30.956 17.87 49.779 15.342c5.957-.673 10.732 2.359 14.1 7.079"/><path data-name="パス 16681" d="M107.192 18.989a3.653 3.653 0 1 1-3.656-3.65 3.653 3.653 0 0 1 3.656 3.65"/><path data-name="パス 16682" d="M29.666 41.682h-4.4a.618.618 0 0 1-.483-.243.977.977 0 0 1-.188-.612q0-.819.671-.819h10.652a.7.7 0 0 1 .539.243.818.818 0 0 1 .206.576.877.877 0 0 1-.242.612.676.676 0 0 1-.5.243h-4.34v11.714a.677.677 0 0 1-.3.522 1.059 1.059 0 0 1-.69.224.976.976 0 0 1-.668-.224.666.666 0 0 1-.261-.522z"/><path data-name="パス 16683" d="M41.725 48.669l2.756-6.278 2.7 6.278zm6.016 1.48l1.378 3.259a.927.927 0 0 0 .913.633.9.9 0 0 0 .933-.931 1.154 1.154 0 0 0-.095-.485l-5.344-12.091a1.089 1.089 0 0 0-1.024-.746 1.051 1.051 0 0 0-1.006.688l-5.531 12.108a1.445 1.445 0 0 0-.149.576.923.923 0 0 0 .241.652.788.788 0 0 0 .6.26 1.014 1.014 0 0 0 .987-.651l1.49-3.277z"/><path data-name="パス 16684" d="M55.009 49.117v4.153a.906.906 0 0 1-.261.634.886.886 0 0 1-.65.261.96.96 0 0 1-.672-.261.87.87 0 0 1-.261-.634v-12.7a.67.67 0 0 1 .261-.522.888.888 0 0 1 .633-.224 1 1 0 0 1 .688.243.65.65 0 0 1 .261.5v6.294l7.414-6.761a1.007 1.007 0 0 1 .708-.279.867.867 0 0 1 .634.261.782.782 0 0 1 .26.594.937.937 0 0 1-.3.709l-4.993 4.58 6.178 6.518a1.042 1.042 0 0 1 .279.744.9.9 0 0 1-.279.654.921.921 0 0 1-.671.28 1.19 1.19 0 0 1-.821-.467l-6-6.631z"/><path data-name="パス 16685" d="M78.981 40.617v8.213q0 5.329-5.681 5.329a5.876 5.876 0 0 1-4.639-1.846 5.687 5.687 0 0 1-1.006-3.817v-7.879a.739.739 0 0 1 .279-.576 1.016 1.016 0 0 1 .692-.225.986.986 0 0 1 .691.261.706.706 0 0 1 .279.54v7.376a5.562 5.562 0 0 0 .688 3.3 3.665 3.665 0 0 0 3.035 1.325 4.151 4.151 0 0 0 2.513-.746 2.6 2.6 0 0 0 .967-1.4 7.412 7.412 0 0 0 .243-2.139v-7.716a.736.736 0 0 1 .26-.558.913.913 0 0 1 .654-.243 1.121 1.121 0 0 1 .728.261.69.69 0 0 1 .3.54"/><path data-name="パス 16686" d="M83.502 43.417a1.618 1.618 0 0 0 .987 1.525 12.6 12.6 0 0 0 2.906.782 11.259 11.259 0 0 1 4.059 1.285 3.587 3.587 0 0 1 1.435 2.98 3.627 3.627 0 0 1-1.472 3.02 6.7 6.7 0 0 1-4.134 1.151 7.065 7.065 0 0 1-4.88-1.677 4.436 4.436 0 0 1-.82-1.024 1.78 1.78 0 0 1-.317-.858.988.988 0 0 1 .317-.724.942.942 0 0 1 .688-.3.829.829 0 0 1 .765.449q.261.445.5.931a3.937 3.937 0 0 0 3.559 1.749q3.872 0 3.873-2.7 0-1.66-3-2.291-2.013-.428-2.533-.558a12.548 12.548 0 0 1-2.013-.634 2.828 2.828 0 0 1-1.843-2.759 3.466 3.466 0 0 1 1.434-2.85 5.89 5.89 0 0 1 3.708-1.1 7.405 7.405 0 0 1 4.526 1.285c.818.606 1.228 1.161 1.228 1.658a1.009 1.009 0 0 1-.315.688.865.865 0 0 1-.634.315.8.8 0 0 1-.616-.334 21.876 21.876 0 0 1-.539-.634 4.923 4.923 0 0 0-3.614-1.491 4.228 4.228 0 0 0-2.383.6 1.74 1.74 0 0 0-.876 1.51"/><path data-name="パス 16687" d="M97.342 47.311v6.072a.723.723 0 0 1-.281.558 1.033 1.033 0 0 1-.692.224.98.98 0 0 1-.657-.243.727.727 0 0 1-.261-.54v-12.8a.685.685 0 0 1 .261-.539.961.961 0 0 1 .657-.224 1.013 1.013 0 0 1 .692.243.651.651 0 0 1 .281.521v5.178h7.446v-5.144a.734.734 0 0 1 .279-.576.968.968 0 0 1 .667-.224 1 1 0 0 1 .686.243.74.74 0 0 1 .258.558v12.69a.8.8 0 0 1-.3.579.891.891 0 0 1-.648.279.965.965 0 0 1-.685-.261.786.786 0 0 1-.261-.6v-6z"/><path data-name="パス 16688" d="M111.493 47.005q0-5.625 4.527-5.624 4.6 0 4.6 5.776 0 5.493-4.507 5.493-4.619 0-4.618-5.645m9.443 5.236a7.69 7.69 0 0 0 1.767-5.384 7.138 7.138 0 0 0-1.787-5.16 6.49 6.49 0 0 0-4.937-1.88 6.368 6.368 0 0 0-5.1 2.31 7.135 7.135 0 0 0-1.452 4.729 7.789 7.789 0 0 0 1.713 5.4 7.237 7.237 0 0 0 9.8-.018"/><path data-name="パス 16689" d="M73.349 32.307a.814.814 0 0 0 .494.764 6.24 6.24 0 0 0 1.452.391 5.588 5.588 0 0 1 2.031.643 1.794 1.794 0 0 1 .715 1.488 1.813 1.813 0 0 1-.735 1.51 3.35 3.35 0 0 1-2.067.576 3.534 3.534 0 0 1-2.44-.837 2.192 2.192 0 0 1-.411-.513.9.9 0 0 1-.158-.427.5.5 0 0 1 .158-.364.469.469 0 0 1 .344-.148.415.415 0 0 1 .382.221 7.1 7.1 0 0 1 .251.467 1.973 1.973 0 0 0 1.78.876q1.937 0 1.937-1.352 0-.828-1.5-1.146a46.825 46.825 0 0 1-1.267-.279 6.081 6.081 0 0 1-1-.315 1.414 1.414 0 0 1-.924-1.379 1.73 1.73 0 0 1 .718-1.425 2.932 2.932 0 0 1 1.852-.549 3.719 3.719 0 0 1 2.266.643c.409.3.615.579.615.828a.51.51 0 0 1-.161.346.425.425 0 0 1-.316.158.4.4 0 0 1-.307-.167c-.092-.107-.184-.213-.27-.319a2.469 2.469 0 0 0-1.807-.743 2.119 2.119 0 0 0-1.194.3.869.869 0 0 0-.436.755"/><path data-name="パス 16690" d="M80.978 34.935l1.378-3.137 1.351 3.137zm3.008.74l.688 1.628a.463.463 0 0 0 .457.319.448.448 0 0 0 .335-.131.454.454 0 0 0 .13-.336.621.621 0 0 0-.045-.243l-2.674-6.042a.544.544 0 0 0-.512-.373.527.527 0 0 0-.5.343L79.1 36.894a.74.74 0 0 0-.076.291.461.461 0 0 0 .121.324.39.39 0 0 0 .3.131.509.509 0 0 0 .492-.324l.745-1.64z"/><path data-name="パス 16691" d="M87.907 31.858c0-.212.024-.343.074-.391a.567.567 0 0 1 .382-.085h1.341q1.538 0 1.538 1.294 0 1.242-1.575 1.24h-1.76zm2.113 2.835a2.384 2.384 0 0 0 1.659-.533 1.953 1.953 0 0 0 .586-1.51 1.919 1.919 0 0 0-.586-1.513 2.409 2.409 0 0 0-1.677-.531h-1.974a1.241 1.241 0 0 0-.843.207 1.091 1.091 0 0 0-.224.809v5.643a.378.378 0 0 0 .13.288.476.476 0 0 0 .337.13.492.492 0 0 0 .338-.121.394.394 0 0 0 .141-.3v-2.571z"/><path data-name="パス 16692" d="M94.767 31.858c0-.212.024-.343.074-.391a.568.568 0 0 1 .382-.085h1.342q1.537 0 1.537 1.294 0 1.242-1.575 1.24h-1.76zm2.113 2.835a2.383 2.383 0 0 0 1.659-.533 1.954 1.954 0 0 0 .588-1.51 1.92 1.92 0 0 0-.588-1.513 2.408 2.408 0 0 0-1.677-.531h-1.973a1.237 1.237 0 0 0-.842.207 1.1 1.1 0 0 0-.225.809v5.643a.378.378 0 0 0 .131.288.476.476 0 0 0 .338.13.5.5 0 0 0 .338-.121.4.4 0 0 0 .14-.3v-2.571z"/><path data-name="パス 16693" d="M101.537 34.104q0-2.815 2.263-2.814 2.3 0 2.3 2.887 0 2.746-2.253 2.746-2.31 0-2.31-2.819m4.722 2.616a3.849 3.849 0 0 0 .883-2.692 3.578 3.578 0 0 0-.892-2.58 3.244 3.244 0 0 0-2.47-.939 3.181 3.181 0 0 0-2.55 1.155 3.556 3.556 0 0 0-.728 2.364 3.9 3.9 0 0 0 .858 2.7 3.625 3.625 0 0 0 4.9-.009"/><path data-name="パス 16694" d="M109.622 31.828a.581.581 0 0 1 .076-.373.553.553 0 0 1 .352-.072h1.816q1.427 0 1.427 1.007 0 1.213-1.546 1.212h-2.125zm2.144 2.562a2.245 2.245 0 0 1 1.107.215 1 1 0 0 1 .467.752c.017.124.038.43.063.912a3.791 3.791 0 0 0 .14.925q.159.482.542.482a.458.458 0 0 0 .335-.14.438.438 0 0 0 .148-.334.908.908 0 0 0-.055-.3 10.396 10.396 0 0 1-.093-.221 2.77 2.77 0 0 1-.121-.664c-.018-.2-.034-.394-.046-.585a1.6 1.6 0 0 0-.391-.931 2.069 2.069 0 0 0-1.016-.485 1.63 1.63 0 0 0 1.4-1.7 1.535 1.535 0 0 0-.551-1.258 2.369 2.369 0 0 0-1.554-.455h-2.376a1.314 1.314 0 0 0-.872.2 1.18 1.18 0 0 0-.213.831v5.684a.3.3 0 0 0 .13.24.484.484 0 0 0 .334.112.529.529 0 0 0 .342-.1.314.314 0 0 0 .139-.249v-2.934z"/><path data-name="パス 16695" d="M117.016 34.104q0-2.815 2.262-2.814 2.3 0 2.3 2.887 0 2.746-2.254 2.746-2.31 0-2.309-2.819m4.721 2.616a3.844 3.844 0 0 0 .885-2.692 3.572 3.572 0 0 0-.894-2.58 3.239 3.239 0 0 0-2.467-.939 3.186 3.186 0 0 0-2.553 1.155 3.565 3.565 0 0 0-.724 2.364 3.9 3.9 0 0 0 .855 2.7 3.626 3.626 0 0 0 4.9-.009"/><path data-name="パス 16696" d="M21.685 5.348a.371.371 0 0 1-.375-.2 16.57 16.57 0 0 0-.175-.375 1.751 1.751 0 0 0-1.764-.991 3.6 3.6 0 0 0-1.538.306 1.411 1.411 0 0 0-.8.739.551.551 0 0 0 .284.77 8.9 8.9 0 0 0 1.558.334 5.49 5.49 0 0 1 2.347.742 1.258 1.258 0 0 1 .323 1.565 3.045 3.045 0 0 1-1.523 1.633 5.846 5.846 0 0 1-2.759.6 3.512 3.512 0 0 1-2.65-.81 1.355 1.355 0 0 1-.467-1.37 1.087 1.087 0 0 1 .391-.5.908.908 0 0 1 .546-.194.4.4 0 0 1 .424.263c.067.225.13.449.187.671q.285.9 2.1.894a3.621 3.621 0 0 0 1.569-.306 1.433 1.433 0 0 0 .816-.77q.3-.824-1.279-1.1-.817-.124-1.643-.264a3.379 3.379 0 0 1-1.232-.376q-.786-.492-.365-1.649a2.929 2.929 0 0 1 1.505-1.564 5.947 5.947 0 0 1 2.756-.588 3.209 3.209 0 0 1 2.185.7q.722.628.5 1.242a.833.833 0 0 1-.366.432.98.98 0 0 1-.552.169"/><path data-name="パス 16697" d="M27.971 3.33l-2.416 6.636a.737.737 0 0 1-.324.364 1.041 1.041 0 0 1-.546.151.622.622 0 0 1-.452-.151.341.341 0 0 1-.061-.364l2.417-6.636a.723.723 0 0 1 .324-.364 1.042 1.042 0 0 1 .547-.151.619.619 0 0 1 .45.151.34.34 0 0 1 .061.364m.476-3.326a.687.687 0 0 1 .6.267.672.672 0 0 1 .048.643 1.425 1.425 0 0 1-.522.658 1.372 1.372 0 0 1-.8.264.634.634 0 0 1-.646-.921 1.379 1.379 0 0 1 .522-.658 1.4 1.4 0 0 1 .79-.251"/><path data-name="パス 16698" d="M32.515 4.357a6.235 6.235 0 0 1 3.783-1.552 2.214 2.214 0 0 1 1.892.739 2.1 2.1 0 0 1 .072 2.013l-1.591 4.371a.8.8 0 0 1-.344.379.988.988 0 0 1-.549.167.515.515 0 0 1-.426-.167.368.368 0 0 1-.039-.379l1.576-4.329q.635-1.746-1.1-1.746a5.315 5.315 0 0 0-3.878 2.15l-1.412 3.883a.783.783 0 0 1-.35.392 1 1 0 0 1-.565.17.436.436 0 0 1-.384-.17.4.4 0 0 1-.035-.392l2.41-6.621a.667.667 0 0 1 .294-.321.958.958 0 0 1 .511-.139.659.659 0 0 1 .453.139.284.284 0 0 1 .075.321z"/><path data-name="パス 16699" d="M47.52 5.751c-.268 0-.433-.239-.494-.724a1.246 1.246 0 0 0-1.428-1.146 2.941 2.941 0 0 0-1.923.754 4.727 4.727 0 0 0-1.382 2.081q-.95 2.614 1.323 2.613a2.853 2.853 0 0 0 2.26-1.062c.2-.26.417-.518.637-.77a.916.916 0 0 1 .712-.361.495.495 0 0 1 .483.712 3.7 3.7 0 0 1-1.167 1.41 5.122 5.122 0 0 1-3.356 1.216 2.693 2.693 0 0 1-2.439-1.021 3.106 3.106 0 0 1-.009-2.792 5.85 5.85 0 0 1 2.083-2.795 5.269 5.269 0 0 1 3.166-1.061 2.767 2.767 0 0 1 2.119.712 1.383 1.383 0 0 1 .377 1.494 1.177 1.177 0 0 1-.4.531.957.957 0 0 1-.567.208"/><path data-name="パス 16700" d="M53.582 4.371a2.787 2.787 0 0 1 1.676-.561 1.454 1.454 0 0 1 1.278.53 1.349 1.349 0 0 1 .108 1.3.362.362 0 0 1-.211.251 1.594 1.594 0 0 1-.509.055h-3.553a3.914 3.914 0 0 1 1.212-1.576M56.5 7.019a2.041 2.041 0 0 0 .937-.17 1.156 1.156 0 0 0 .512-.67 2.618 2.618 0 0 0-.106-2.4 2.415 2.415 0 0 0-2.186-.979 5.021 5.021 0 0 0-3.068 1.034 5.945 5.945 0 0 0-2.032 2.807 3.049 3.049 0 0 0 .048 2.768 2.559 2.559 0 0 0 2.348 1.061 5.568 5.568 0 0 0 3.352-1.285 2.279 2.279 0 0 0 .816-.894.463.463 0 0 0-.031-.446.54.54 0 0 0-.454-.182.787.787 0 0 0-.517.194c-.159.14-.317.285-.468.434a3.365 3.365 0 0 1-2.262 1.1 1.558 1.558 0 0 1-1.451-.628 2 2 0 0 1 .011-1.746z"/><path data-name="パス 16701" d="M75.798 5.502a7.955 7.955 0 0 1-2.34.631c-.321 0-.448-.1-.373-.3.053-.148.234-.261.546-.34a49.32 49.32 0 0 0 1.049-.291 4.938 4.938 0 0 0 2.025-1.167 1.191 1.191 0 0 1 .664-.361c.223 0 .3.085.24.254l-2.207 6.07a.586.586 0 0 1-.292.291.969.969 0 0 1-.474.118.619.619 0 0 1-.4-.118.258.258 0 0 1-.066-.291z"/><path data-name="パス 16702" d="M85.423 7.288a1.956 1.956 0 0 1-1.367-.373.965.965 0 0 1-.134-1.1 2 2 0 0 1 .992-1.086 3.619 3.619 0 0 1 1.773-.409 2.431 2.431 0 0 1 1.687.492 1.387 1.387 0 0 1 .33 1.412 5.733 5.733 0 0 1-3.28 1.061m3.023-.188a3.87 3.87 0 0 1-1.438 1.938 3.951 3.951 0 0 1-2.307.679 2.265 2.265 0 0 1-1.655-.609 2.057 2.057 0 0 0-.241-.255.445.445 0 0 0-.327-.13 1.022 1.022 0 0 0-.51.142.645.645 0 0 0-.315.312c-.1.288.079.558.552.807a4.794 4.794 0 0 0 2.195.422 6.241 6.241 0 0 0 3.378-.888 4.866 4.866 0 0 0 2.009-2.519 2.34 2.34 0 0 0-.154-2.474 3.57 3.57 0 0 0-2.757-.852 5.955 5.955 0 0 0-2.747.595 2.956 2.956 0 0 0-1.52 1.585 1.313 1.313 0 0 0 .3 1.577 3.372 3.372 0 0 0 2.221.585 6.518 6.518 0 0 0 3.345-.97z"/><path data-name="パス 16703" d="M98.637 4.581h-5.19a.372.372 0 0 1-.3-.124.285.285 0 0 1-.032-.291.564.564 0 0 1 .253-.288.741.741 0 0 1 .379-.115h6.345c.414 0 .578.118.491.358-.042.115-.251.27-.627.461a12.411 12.411 0 0 0-2.2 1.392 8.448 8.448 0 0 0-1.767 1.855 9.111 9.111 0 0 0-.971 1.983.877.877 0 0 1-.921.582c-.479 0-.64-.215-.482-.652q1.009-2.778 5.019-5.16"/><path data-name="パス 16704" d="M105.117 5.502a7.993 7.993 0 0 1-2.34.631c-.324 0-.449-.1-.374-.3.053-.148.235-.261.546-.34.568-.154.92-.251 1.05-.291a5.682 5.682 0 0 0 1.024-.43 5.6 5.6 0 0 0 1-.737 1.181 1.181 0 0 1 .662-.361c.223 0 .3.085.241.254l-2.208 6.07a.6.6 0 0 1-.293.291.967.967 0 0 1-.475.118.615.615 0 0 1-.4-.118.257.257 0 0 1-.067-.291z"/></g></svg>