<svg xmlns="http://www.w3.org/2000/svg" width="315.597" height="218.109" viewBox="0 0 315.597 218.109">
  <g id="グループ_5455" data-name="グループ 5455" transform="translate(-525 322.109)">
    <g id="グループ_5454" data-name="グループ 5454" transform="translate(525 -268.64)">
      <g id="グループ_5358" data-name="グループ 5358" transform="translate(223.868 146.2)">
        <path id="パス_16675" data-name="パス 16675" d="M479.174,331.177a3.316,3.316,0,0,0-2.028-.662,2.7,2.7,0,0,0-1.649.473q-2.791,2.083-2.789,7.377,0,4.634,2.029,6.146a3.38,3.38,0,0,0,2.028.756,3.725,3.725,0,0,0,2.284-.756,4.414,4.414,0,0,0,1.522-3.783v-1.8h-3.931v-1.8H483.1v10.023H480.95l-.38-1.7a5.845,5.845,0,0,1-4.185,1.7,5.971,5.971,0,0,1-3.677-1.134q-2.916-2.174-2.917-7.659,0-5.862,3.169-8.228a6.85,6.85,0,0,1,4.185-1.417,6.229,6.229,0,0,1,3.8,1.04,5.531,5.531,0,0,1,2.155,4.728h-2.662Q480.315,332.029,479.174,331.177Z" transform="translate(-469.791 -328.719)" fill="#fff"/>
        <path id="パス_16676" data-name="パス 16676" d="M494.359,330.232a4.1,4.1,0,0,1,1.649,3.5,4.171,4.171,0,0,1-1.649,3.4,5.827,5.827,0,0,1-2.282,1.23l4.564,8.793H493.6l-4.311-8.51h-3.551v8.51H482.82V328.719h6.34A8.466,8.466,0,0,1,494.359,330.232ZM492.077,336a2.648,2.648,0,0,0,1.015-2.268,2.691,2.691,0,0,0-1.142-2.27,5.607,5.607,0,0,0-3.424-.946h-2.789v6.336h3.677A4.333,4.333,0,0,0,492.077,336Z" transform="translate(-463.091 -328.719)" fill="#fff"/>
        <path id="パス_16677" data-name="パス 16677" d="M509.423,337.891q0,5.958-2.789,8.038a6.811,6.811,0,0,1-4.186,1.23,7.022,7.022,0,0,1-4.311-1.23q-2.789-2.078-2.789-8.038,0-5.862,2.789-7.942a7.031,7.031,0,0,1,4.311-1.23,6.82,6.82,0,0,1,4.186,1.23Q509.421,332.029,509.423,337.891Zm-11.159,0q0,5.39,1.648,6.62a4.148,4.148,0,0,0,2.536.851,3.972,3.972,0,0,0,2.409-.851q1.647-1.229,1.649-6.62,0-5.295-1.649-6.525a3.971,3.971,0,0,0-2.409-.851,4.147,4.147,0,0,0-2.536.851Q498.263,332.6,498.265,337.891Z" transform="translate(-456.648 -328.719)" fill="#fff"/>
        <path id="パス_16678" data-name="パス 16678" d="M508.544,328.719h2.916v13.522a2.529,2.529,0,0,0,.889,2.175,4.418,4.418,0,0,0,2.662.662h.127a4.184,4.184,0,0,0,2.536-.662,2.548,2.548,0,0,0,1.013-2.175V328.719H521.6v13.522a4.571,4.571,0,0,1-1.9,3.877,7.756,7.756,0,0,1-4.564,1.04h-.127a7.756,7.756,0,0,1-4.565-1.04,4.575,4.575,0,0,1-1.9-3.877Z" transform="translate(-449.862 -328.719)" fill="#fff"/>
        <path id="パス_16679" data-name="パス 16679" d="M532.987,330.042a5.1,5.1,0,0,1,0,7.944,7.885,7.885,0,0,1-4.818,1.323h-3.677v7.848h-2.917V328.719h6.593A7.884,7.884,0,0,1,532.987,330.042Zm-8.495.472v7h2.917a5.825,5.825,0,0,0,3.549-.945,3.425,3.425,0,0,0,0-5.106,5.836,5.836,0,0,0-3.549-.946Z" transform="translate(-443.16 -328.719)" fill="#fff"/>
      </g>
      <path id="パス_16680" data-name="パス 16680" d="M486.261,276.517c6.355,1.013,10.262-3.618,15.6-4.771,19.8-5.638,43.072-8.819,64.02-5.2-35.255-1.443-64.3,13.451-89.454,35.408,2.028-5.061.733-11.127-.572-16.039-6.355-10.691-18.933-11.572-29.623-9.98-51.306,10.986-92.346,55.354-124.285,97.835V319.162c39.019-29.2,79.621-54.348,128.035-60.852,15.323-1.731,27.6,6.066,36.274,18.208" transform="translate(-321.951 -218.851)" fill="#fff"/>
      <path id="パス_16681" data-name="パス 16681" d="M510.4,267.611a9.4,9.4,0,1,1-9.4-9.388,9.4,9.4,0,0,1,9.4,9.388" transform="translate(-234.703 -218.772)" fill="#fff"/>
      <path id="パス_16682" data-name="パス 16682" d="M376.767,304.434H365.46a1.59,1.59,0,0,1-1.243-.624,2.512,2.512,0,0,1-.483-1.575q0-2.106,1.726-2.106h27.4a1.8,1.8,0,0,1,1.387.624,2.1,2.1,0,0,1,.53,1.482,2.256,2.256,0,0,1-.622,1.575,1.738,1.738,0,0,1-1.295.624H381.695v30.129a1.74,1.74,0,0,1-.763,1.342,2.724,2.724,0,0,1-1.775.577,2.509,2.509,0,0,1-1.719-.577,1.713,1.713,0,0,1-.671-1.342Z" transform="translate(-300.464 -197.221)" fill="#fff"/>
      <path id="パス_16683" data-name="パス 16683" d="M396.238,322.589l7.088-16.148,6.947,16.148Zm15.474,3.805,3.543,8.383a2.383,2.383,0,0,0,2.349,1.629,2.3,2.3,0,0,0,2.4-2.394,2.968,2.968,0,0,0-.244-1.248l-13.746-31.088a2.8,2.8,0,0,0-2.635-1.918,2.7,2.7,0,0,0-2.588,1.77l-14.226,31.142a3.718,3.718,0,0,0-.383,1.483,2.373,2.373,0,0,0,.619,1.676,2.027,2.027,0,0,0,1.534.668,2.607,2.607,0,0,0,2.539-1.675l3.833-8.428Z" transform="translate(-288.92 -197.412)" fill="#fff"/>
      <path id="パス_16684" data-name="パス 16684" d="M417,323.707v10.682a2.33,2.33,0,0,1-.671,1.631,2.279,2.279,0,0,1-1.672.671,2.468,2.468,0,0,1-1.728-.671,2.239,2.239,0,0,1-.671-1.631v-32.67a1.724,1.724,0,0,1,.671-1.342,2.285,2.285,0,0,1,1.629-.577,2.571,2.571,0,0,1,1.77.624,1.672,1.672,0,0,1,.671,1.295v16.187l19.069-17.388a2.59,2.59,0,0,1,1.82-.718,2.231,2.231,0,0,1,1.631.671,2.012,2.012,0,0,1,.669,1.528,2.409,2.409,0,0,1-.763,1.825L426.586,315.6l15.859,16.772a2.68,2.68,0,0,1,.718,1.913,2.316,2.316,0,0,1-.718,1.682,2.37,2.37,0,0,1-1.725.719,3.06,3.06,0,0,1-2.111-1.2l-15.424-17.055Z" transform="translate(-275.508 -197.391)" fill="#fff"/>
      <path id="パス_16685" data-name="パス 16685" d="M466,301.858v21.124q0,13.706-14.613,13.707-7.716,0-11.931-4.749-2.587-2.862-2.588-9.817V301.858a1.9,1.9,0,0,1,.718-1.481,2.614,2.614,0,0,1,1.779-.578,2.536,2.536,0,0,1,1.776.671,1.817,1.817,0,0,1,.716,1.389v18.971q0,6.28,1.77,8.477a9.427,9.427,0,0,0,7.806,3.407,10.676,10.676,0,0,0,6.464-1.919,6.694,6.694,0,0,0,2.486-3.595,19.062,19.062,0,0,0,.625-5.5V301.858a1.893,1.893,0,0,1,.669-1.436,2.349,2.349,0,0,1,1.681-.624,2.882,2.882,0,0,1,1.873.671,1.776,1.776,0,0,1,.766,1.389" transform="translate(-262.855 -197.391)" fill="#fff"/>
      <path id="パス_16686" data-name="パス 16686" d="M465.735,309.048a4.163,4.163,0,0,0,2.538,3.922,32.4,32.4,0,0,0,7.474,2.012q8.238,1.588,10.441,3.306a9.225,9.225,0,0,1,3.692,7.665,9.328,9.328,0,0,1-3.786,7.767q-3.929,2.971-10.636,2.971-7.713,0-12.55-4.314a11.411,11.411,0,0,1-2.109-2.635,4.579,4.579,0,0,1-.816-2.206,2.542,2.542,0,0,1,.816-1.863,2.423,2.423,0,0,1,1.769-.772,2.133,2.133,0,0,1,1.967,1.154q.672,1.145,1.295,2.394,2.923,4.5,9.154,4.5,9.958,0,9.961-6.94,0-4.27-7.711-5.894-5.176-1.1-6.516-1.434a32.277,32.277,0,0,1-5.177-1.631,7.275,7.275,0,0,1-4.741-7.1,8.914,8.914,0,0,1,3.689-7.329,15.15,15.15,0,0,1,9.537-2.823q7.182,0,11.642,3.306c2.1,1.56,3.157,2.986,3.157,4.266a2.594,2.594,0,0,1-.81,1.77,2.225,2.225,0,0,1-1.629.81,2.066,2.066,0,0,1-1.584-.859c-.475-.545-.943-1.083-1.387-1.629a12.66,12.66,0,0,0-9.294-3.836,10.873,10.873,0,0,0-6.13,1.537,4.475,4.475,0,0,0-2.253,3.883" transform="translate(-250.967 -197.391)" fill="#fff"/>
      <path id="パス_16687" data-name="パス 16687" d="M488.94,319.075v15.618a1.859,1.859,0,0,1-.722,1.436,2.656,2.656,0,0,1-1.781.577,2.521,2.521,0,0,1-1.69-.624,1.869,1.869,0,0,1-.672-1.389V301.764a1.761,1.761,0,0,1,.672-1.387,2.471,2.471,0,0,1,1.69-.577,2.605,2.605,0,0,1,1.781.624,1.673,1.673,0,0,1,.722,1.34v13.318h19.151V301.858a1.887,1.887,0,0,1,.718-1.481,2.49,2.49,0,0,1,1.716-.577,2.563,2.563,0,0,1,1.766.624,1.9,1.9,0,0,1,.665,1.434V334.5a2.066,2.066,0,0,1-.763,1.49,2.292,2.292,0,0,1-1.667.718,2.483,2.483,0,0,1-1.763-.671,2.02,2.02,0,0,1-.671-1.537V319.075Z" transform="translate(-238.577 -197.391)" fill="#fff"/>
      <path id="パス_16688" data-name="パス 16688" d="M513.131,318.288q0-14.469,11.643-14.464,11.825,0,11.826,14.855,0,14.128-11.593,14.128-11.879,0-11.876-14.519m24.289,13.466q4.549-4.983,4.546-13.848,0-8.481-4.6-13.271-4.6-4.831-12.7-4.835a16.377,16.377,0,0,0-13.124,5.942q-3.734,4.454-3.734,12.164,0,9.006,4.407,13.895,4.456,4.89,12.6,4.89,8.05,0,12.6-4.937" transform="translate(-226.369 -197.391)" fill="#fff"/>
      <path id="パス_16689" data-name="パス 16689" d="M447.513,288.615a2.1,2.1,0,0,0,1.27,1.966,16.046,16.046,0,0,0,3.736,1.005q4.113.784,5.224,1.654a4.615,4.615,0,0,1,1.84,3.828,4.664,4.664,0,0,1-1.891,3.883,8.615,8.615,0,0,1-5.317,1.482,9.09,9.09,0,0,1-6.275-2.152,5.636,5.636,0,0,1-1.057-1.319,2.313,2.313,0,0,1-.407-1.1,1.285,1.285,0,0,1,.407-.936,1.206,1.206,0,0,1,.886-.382,1.068,1.068,0,0,1,.983.569c.227.382.441.787.647,1.2a5.076,5.076,0,0,0,4.579,2.253q4.981,0,4.982-3.477,0-2.131-3.86-2.948c-1.725-.367-2.807-.6-3.259-.718a15.641,15.641,0,0,1-2.582-.81,3.635,3.635,0,0,1-2.376-3.548,4.449,4.449,0,0,1,1.846-3.664,7.54,7.54,0,0,1,4.763-1.413,9.566,9.566,0,0,1,5.827,1.654c1.051.78,1.582,1.49,1.582,2.129a1.311,1.311,0,0,1-.413.889,1.094,1.094,0,0,1-.812.406,1.018,1.018,0,0,1-.79-.429c-.238-.274-.472-.547-.694-.819a6.35,6.35,0,0,0-4.647-1.911,5.45,5.45,0,0,0-3.071.765,2.235,2.235,0,0,0-1.121,1.941" transform="translate(-258.859 -205.521)" fill="#fff"/>
      <path id="パス_16690" data-name="パス 16690" d="M461.2,295.385l3.545-8.07,3.474,8.07Zm7.738,1.9,1.77,4.187a1.19,1.19,0,0,0,1.175.819,1.151,1.151,0,0,0,.862-.336,1.167,1.167,0,0,0,.335-.865,1.6,1.6,0,0,0-.117-.624l-6.878-15.541a1.4,1.4,0,0,0-1.317-.959,1.357,1.357,0,0,0-1.295.881l-7.111,15.571a1.9,1.9,0,0,0-.2.748,1.185,1.185,0,0,0,.312.834,1,1,0,0,0,.769.336,1.309,1.309,0,0,0,1.266-.834l1.917-4.219Z" transform="translate(-252.927 -205.531)" fill="#fff"/>
      <path id="パス_16691" data-name="パス 16691" d="M472.084,287.376c0-.545.062-.881.191-1.005a1.458,1.458,0,0,1,.983-.218h3.448q3.957,0,3.955,3.328,0,3.194-4.051,3.19h-4.526Zm5.435,7.291a6.133,6.133,0,0,0,4.266-1.372,5.023,5.023,0,0,0,1.508-3.884,4.937,4.937,0,0,0-1.508-3.89,6.2,6.2,0,0,0-4.313-1.366H472.4a3.19,3.19,0,0,0-2.168.532,2.8,2.8,0,0,0-.577,2.081V301.28a.971.971,0,0,0,.335.74,1.225,1.225,0,0,0,.866.335,1.266,1.266,0,0,0,.869-.312,1.015,1.015,0,0,0,.363-.763v-6.613Z" transform="translate(-245.995 -205.436)" fill="#fff"/>
      <path id="パス_16692" data-name="パス 16692" d="M483.742,287.376c0-.545.062-.881.191-1.005a1.461,1.461,0,0,1,.983-.218h3.451q3.952,0,3.952,3.328,0,3.194-4.051,3.19h-4.526Zm5.435,7.291a6.13,6.13,0,0,0,4.266-1.372,5.026,5.026,0,0,0,1.513-3.884,4.939,4.939,0,0,0-1.513-3.89,6.194,6.194,0,0,0-4.313-1.366h-5.076a3.182,3.182,0,0,0-2.167.532,2.817,2.817,0,0,0-.578,2.081V301.28a.973.973,0,0,0,.336.74,1.224,1.224,0,0,0,.869.335,1.275,1.275,0,0,0,.869-.312,1.026,1.026,0,0,0,.359-.763v-6.613Z" transform="translate(-239.999 -205.436)" fill="#fff"/>
      <path id="パス_16693" data-name="パス 16693" d="M495.319,293.239q0-7.239,5.821-7.237,5.91,0,5.915,7.425,0,7.064-5.793,7.064-5.942,0-5.942-7.252m12.144,6.729a9.9,9.9,0,0,0,2.271-6.925,9.2,9.2,0,0,0-2.294-6.637,8.343,8.343,0,0,0-6.352-2.415,8.181,8.181,0,0,0-6.558,2.971,9.146,9.146,0,0,0-1.872,6.081q0,4.5,2.206,6.949a9.323,9.323,0,0,0,12.6-.024" transform="translate(-234.163 -205.52)" fill="#fff"/>
      <path id="パス_16694" data-name="パス 16694" d="M508.972,287.3a1.5,1.5,0,0,1,.2-.959,1.423,1.423,0,0,1,.906-.186h4.672q3.67,0,3.669,2.589,0,3.121-3.977,3.118h-5.465Zm5.515,6.59a5.775,5.775,0,0,1,2.847.554,2.576,2.576,0,0,1,1.2,1.934c.044.32.1,1.107.162,2.346a9.747,9.747,0,0,0,.359,2.379q.409,1.24,1.393,1.24a1.178,1.178,0,0,0,.862-.359,1.127,1.127,0,0,0,.381-.859,2.338,2.338,0,0,0-.142-.771c-.082-.188-.162-.382-.239-.569a7.122,7.122,0,0,1-.312-1.708c-.047-.506-.088-1.013-.118-1.505a4.128,4.128,0,0,0-1.006-2.394,5.321,5.321,0,0,0-2.614-1.246c2.394-.61,3.6-2.061,3.6-4.369a3.948,3.948,0,0,0-1.417-3.234,6.094,6.094,0,0,0-4-1.169h-6.11a3.38,3.38,0,0,0-2.243.521,3.036,3.036,0,0,0-.548,2.138v14.619a.76.76,0,0,0,.335.618,1.245,1.245,0,0,0,.859.288,1.362,1.362,0,0,0,.88-.265.807.807,0,0,0,.357-.641v-7.547Z" transform="translate(-227.023 -205.436)" fill="#fff"/>
      <path id="パス_16695" data-name="パス 16695" d="M521.609,293.239q0-7.239,5.818-7.237,5.917,0,5.918,7.425,0,7.064-5.8,7.064-5.942,0-5.939-7.252m12.141,6.729a9.886,9.886,0,0,0,2.276-6.925,9.186,9.186,0,0,0-2.3-6.637,8.331,8.331,0,0,0-6.346-2.415,8.194,8.194,0,0,0-6.566,2.971,9.168,9.168,0,0,0-1.862,6.081q0,4.5,2.2,6.949a9.325,9.325,0,0,0,12.6-.024" transform="translate(-220.641 -205.52)" fill="#fff"/>
      <path id="パス_16696" data-name="パス 16696" d="M365.417,243.474a.955.955,0,0,1-.965-.507c-.139-.31-.291-.631-.451-.965q-1.172-2.551-4.538-2.55a9.251,9.251,0,0,0-3.957.787,3.628,3.628,0,0,0-2.07,1.9,1.417,1.417,0,0,0,.731,1.981,22.894,22.894,0,0,0,4.008.859c2.971.46,4.982,1.092,6.036,1.909q1.783,1.392.831,4.025a7.833,7.833,0,0,1-3.9,4.2,15.035,15.035,0,0,1-7.1,1.545q-4.9,0-6.816-2.082c-1.184-1.295-1.589-2.471-1.2-3.524a2.8,2.8,0,0,1,1.006-1.295,2.336,2.336,0,0,1,1.405-.5,1.038,1.038,0,0,1,1.092.677c.173.578.333,1.155.48,1.725q.734,2.3,5.4,2.3a9.312,9.312,0,0,0,4.035-.788,3.685,3.685,0,0,0,2.1-1.981q.77-2.119-3.29-2.838-2.1-.318-4.226-.678a8.691,8.691,0,0,1-3.168-.968q-2.022-1.265-.939-4.241a7.532,7.532,0,0,1,3.872-4.023,15.3,15.3,0,0,1,7.088-1.513,8.254,8.254,0,0,1,5.62,1.8q1.856,1.615,1.282,3.2a2.141,2.141,0,0,1-.94,1.11,2.522,2.522,0,0,1-1.419.435" transform="translate(-309.643 -229.72)" fill="#fff"/>
      <path id="パス_16697" data-name="パス 16697" d="M372.8,240.724l-6.215,17.069a1.9,1.9,0,0,1-.834.936,2.678,2.678,0,0,1-1.4.389,1.6,1.6,0,0,1-1.163-.389.878.878,0,0,1-.156-.936l6.216-17.069a1.859,1.859,0,0,1,.834-.936,2.681,2.681,0,0,1,1.407-.389,1.593,1.593,0,0,1,1.158.389.875.875,0,0,1,.156.936m1.224-8.554a1.768,1.768,0,0,1,1.552.686,1.728,1.728,0,0,1,.124,1.654,3.665,3.665,0,0,1-1.342,1.691,3.528,3.528,0,0,1-2.046.678,1.632,1.632,0,0,1-1.661-2.37,3.548,3.548,0,0,1,1.342-1.693,3.6,3.6,0,0,1,2.031-.647" transform="translate(-300.861 -232.17)" fill="#fff"/>
      <path id="パス_16698" data-name="パス 16698" d="M380.132,240.926q5.092-3.989,9.729-3.992c2.3,0,3.925.639,4.867,1.9q1.377,1.906.186,5.177l-4.091,11.243a2.056,2.056,0,0,1-.886.975,2.542,2.542,0,0,1-1.411.429,1.325,1.325,0,0,1-1.1-.429.947.947,0,0,1-.1-.975l4.054-11.134q1.633-4.491-2.821-4.491-5.077,0-9.974,5.529l-3.633,9.988a2.014,2.014,0,0,1-.9,1.007,2.58,2.58,0,0,1-1.454.436,1.121,1.121,0,0,1-.987-.436,1.034,1.034,0,0,1-.089-1.007l6.2-17.029a1.715,1.715,0,0,1,.757-.827,2.465,2.465,0,0,1,1.314-.357,1.7,1.7,0,0,1,1.166.357.731.731,0,0,1,.194.827Z" transform="translate(-296.503 -229.72)" fill="#fff"/>
      <path id="パス_16699" data-name="パス 16699" d="M408.863,244.511c-.69,0-1.114-.615-1.27-1.863-.257-1.964-1.478-2.947-3.674-2.947a7.564,7.564,0,0,0-4.947,1.94,12.156,12.156,0,0,0-3.555,5.351q-2.444,6.723,3.4,6.72a7.337,7.337,0,0,0,5.812-2.73c.527-.669,1.074-1.333,1.638-1.979a2.355,2.355,0,0,1,1.832-.928,1.273,1.273,0,0,1,1.243,1.831,9.511,9.511,0,0,1-3,3.627,13.174,13.174,0,0,1-8.633,3.127q-4.55,0-6.272-2.627-1.685-2.619-.024-7.182a15.047,15.047,0,0,1,5.37-7.188,13.551,13.551,0,0,1,8.144-2.729c2.5,0,4.316.606,5.451,1.832a3.558,3.558,0,0,1,.971,3.843,3.027,3.027,0,0,1-1.03,1.366,2.461,2.461,0,0,1-1.458.536" transform="translate(-286.652 -229.72)" fill="#fff"/>
      <path id="パス_16700" data-name="パス 16700" d="M415.868,240.973a7.167,7.167,0,0,1,4.31-1.443,3.739,3.739,0,0,1,3.286,1.364,3.468,3.468,0,0,1,.277,3.345.931.931,0,0,1-.542.647,4.1,4.1,0,0,1-1.31.141H412.75a10.066,10.066,0,0,1,3.118-4.054m7.5,6.814a5.249,5.249,0,0,0,2.409-.436,2.975,2.975,0,0,0,1.317-1.723q1.335-3.661-.273-6.177-1.649-2.514-5.622-2.518a12.915,12.915,0,0,0-7.891,2.659,15.289,15.289,0,0,0-5.227,7.22q-1.608,4.422.124,7.12,1.719,2.723,6.04,2.729a14.321,14.321,0,0,0,8.622-3.306,5.86,5.86,0,0,0,2.1-2.3,1.191,1.191,0,0,0-.079-1.146,1.388,1.388,0,0,0-1.169-.468,2.024,2.024,0,0,0-1.329.5c-.409.359-.815.733-1.2,1.116q-2.989,2.841-5.818,2.838-2.749,0-3.731-1.614c-.669-1.1-.659-2.6.027-4.491Z" transform="translate(-278.055 -229.721)" fill="#fff"/>
      <path id="パス_16701" data-name="パス 16701" d="M453.084,243.115a20.461,20.461,0,0,1-6.018,1.622c-.827,0-1.152-.257-.96-.78.136-.382.6-.671,1.4-.874,1.464-.4,2.361-.647,2.7-.748a12.7,12.7,0,0,0,5.208-3,3.062,3.062,0,0,1,1.707-.928c.574,0,.781.218.616.654l-5.677,15.612a1.507,1.507,0,0,1-.751.748,2.494,2.494,0,0,1-1.219.3,1.591,1.591,0,0,1-1.039-.3.664.664,0,0,1-.169-.748Z" transform="translate(-258.13 -228.963)" fill="#fff"/>
      <path id="パス_16702" data-name="パス 16702" d="M470.361,247.708a5.03,5.03,0,0,1-3.515-.958,2.482,2.482,0,0,1-.345-2.823,5.153,5.153,0,0,1,2.552-2.792,9.308,9.308,0,0,1,4.56-1.052,6.253,6.253,0,0,1,4.338,1.264,3.568,3.568,0,0,1,.848,3.633,14.744,14.744,0,0,1-8.437,2.729m7.776-.483a9.954,9.954,0,0,1-3.7,4.983,10.161,10.161,0,0,1-5.933,1.746,5.825,5.825,0,0,1-4.257-1.567,5.3,5.3,0,0,0-.619-.656,1.144,1.144,0,0,0-.84-.335,2.629,2.629,0,0,0-1.311.366,1.659,1.659,0,0,0-.81.8c-.264.742.2,1.436,1.42,2.075a12.329,12.329,0,0,0,5.645,1.084,16.052,16.052,0,0,0,8.687-2.285,12.515,12.515,0,0,0,5.168-6.48q1.535-4.2-.4-6.363-1.919-2.187-7.091-2.191a15.316,15.316,0,0,0-7.076,1.529,7.6,7.6,0,0,0-3.91,4.076c-.628,1.725-.371,3.073.76,4.055,1.146,1,3.051,1.505,5.713,1.505a16.764,16.764,0,0,0,8.6-2.5Z" transform="translate(-250.651 -228.963)" fill="#fff"/>
      <path id="パス_16703" data-name="パス 16703" d="M494.336,240.666h-13.35a.957.957,0,0,1-.775-.319.734.734,0,0,1-.082-.75,1.45,1.45,0,0,1,.651-.741,1.907,1.907,0,0,1,.975-.3h16.319c1.065,0,1.485.3,1.263.921-.107.3-.647.694-1.613,1.186a31.917,31.917,0,0,0-5.647,3.58,21.729,21.729,0,0,0-4.546,4.771,23.435,23.435,0,0,0-2.5,5.1,2.255,2.255,0,0,1-2.368,1.5c-1.231,0-1.646-.553-1.24-1.676q2.6-7.146,12.909-13.271" transform="translate(-240.639 -228.884)" fill="#fff"/>
      <path id="パス_16704" data-name="パス 16704" d="M502.886,243.115a20.56,20.56,0,0,1-6.019,1.622c-.834,0-1.154-.257-.963-.78.136-.382.6-.671,1.4-.874,1.461-.4,2.365-.647,2.7-.748a14.608,14.608,0,0,0,2.635-1.107,14.4,14.4,0,0,0,2.574-1.894,3.038,3.038,0,0,1,1.7-.928q.858,0,.619.654l-5.68,15.612a1.529,1.529,0,0,1-.753.748,2.487,2.487,0,0,1-1.221.3,1.581,1.581,0,0,1-1.037-.3.662.662,0,0,1-.171-.748Z" transform="translate(-232.522 -228.963)" fill="#fff"/>
    </g>
    <path id="パス_16801" data-name="パス 16801" d="M-125.888-2.5a27.571,27.571,0,0,0,4.16-7.072V3.04h4.64V-9.888a35.741,35.741,0,0,0,2.848,4.864l2.752-4.192a25.262,25.262,0,0,1-5.536-8.16h5.248v-4.512h-5.312v-5.44h-4.64v5.44h-5.5v4.512h5.248a22.113,22.113,0,0,1-5.728,9.152Zm15.424-24.832V-.256c0,2.688,1.76,2.944,2.368,2.944h7.488c2.528,0,3.776-1.088,3.9-10.432L-101.5-8.9c.032,1.28-.1,4.672-.16,5.28-.16,1.152-.352,1.472-.928,1.472H-104.7c-.576,0-.736-.608-.736-.928V-27.328Zm34.208,16.7h-1.056a21.035,21.035,0,0,0-1.152-3.808l-3.9.736a18.358,18.358,0,0,1,1.056,3.072h-1.7V-6.5h2.976c-.128,1.088-.48,4.32-5.632,5.984l3.008,3.68A11.34,11.34,0,0,0-75.9-6.5h1.728V.288a2.206,2.206,0,0,0,2.112,2.5h4.544c2.56,0,2.848-3.488,2.912-6.848l-3.584-.7A16.893,16.893,0,0,1-68.32-2.24c-.032.288-.1.64-.48.64h-.864c-.384,0-.384-.448-.384-.576V-6.432h5.088v-4.192h-1.92a33.1,33.1,0,0,0,1.056-3.3l-4.224-.608c-.16.672-.544,2.56-.992,3.9h-1.088V-14.88h6.4V-26.5H-82.4V-14.88h6.144Zm6.08-12.7v1.408h-7.808v-1.408Zm0,3.936v1.472h-7.808v-1.472ZM-90.72-22.464h-3.808V-2.688h2.752V-18.016h1.056V2.976H-87.3V-18.016h1.12V-7.968c0,.224,0,.32-.352.32h-.608l.736,4.9h1.248c1.632,0,1.632-1.568,1.632-2.272v-17.44h-3.52V-27.3h-3.68Zm38.112,11.456L-63.168-9.92l.352,4.448L-52.608-6.56V-.672c0,1.792.768,3.3,3.328,3.3h11.744c3.392,0,3.488-3.04,3.68-7.968l-4.864-1.12a35.618,35.618,0,0,1-.256,3.712.964.964,0,0,1-.9.9H-46.4c-1.248,0-1.344-.576-1.344-1.344V-7.072l14.88-1.568-.288-4.416L-47.744-11.52v-2.688A65.163,65.163,0,0,0-37.568-16.16l-.32-.544H-33.7v-8.32H-45.568v-2.3h-4.9v2.3H-62.24v8.32h2.688l1.056,3.616c1.152-.1,2.336-.16,5.888-.512Zm12.416-9.248c-5.248,1.7-14.016,2.56-17.28,2.688v-3.2H-38.5v3.136ZM-24.032-8.9c5.5-2.112,6.336-4.224,6.816-6.528h1.184v3.52c0,1.952,1.824,1.984,2.432,1.984h4.96c1.216,0,1.472-.16,1.792-.384v7.52c0,.64-.352.8-.672.8H-8.768V-8.96h-14.56V.416h12.864L-9.92,2.88h4.48c.672,0,3.232,0,3.232-2.88V-19.2h-5.76A16.6,16.6,0,0,0-7.2-21.536H-.864v-4.1H-13.5V-27.3h-4.928v1.664h-12.7v4.1h6.5a8.977,8.977,0,0,1,.576,2.336h-5.824V2.88h4.672V-11.1Zm12.864-4.16c-.224,0-.64,0-.64-.64v-1.728h4.96v1.248l-2.08-.48c-.128,1.376-.448,1.6-1.408,1.6Zm-1.216-8.48a11.092,11.092,0,0,1-.64,2.336H-19.04a20.561,20.561,0,0,0-.608-2.336Zm-8.992,6.112c-.384.736-.992,1.984-3.84,2.688v-2.688Zm8.352,9.92v2.272H-19.1V-5.5ZM4.832-10.816A23.928,23.928,0,0,0,12.48-17.5h10.4C19.808-6.272,12.064-3.84,4-2.784L6.08,1.984C12.992.8,17.824-1.024,21.5-4.9A29.086,29.086,0,0,0,29.088-21.76l-5.728.9c-.032-.192-.192-1.152-.224-1.376H15.52a28.681,28.681,0,0,0,1.664-3.712l-5.472-.64a20.356,20.356,0,0,1-10.144,12ZM31.392-23.1a25.4,25.4,0,0,0-1.408-4.512l-2.816.416a29.022,29.022,0,0,1,1.344,4.576Zm-4.32.608A27.755,27.755,0,0,0,25.6-27.3l-2.816.448A41.932,41.932,0,0,1,24.1-22.016Zm15.584-2.272H37.5v8c0,10.624-3.136,13.664-4.64,15.1l4,4.16c1.664-1.568,5.792-5.6,5.792-19.808Zm8.736-1.024h-5.12V1.536C56.32,1.152,61.5-5.024,63.232-13.632l-4.8-2.3c-.384,2.56-1.568,9.248-7.04,11.072Zm14.5,10.944V-9.5H94.112v-5.344Zm33.024-9.408V-19.2h19.712c-.928,7.168-4.1,14.208-17.632,16.128l2.432,4.864c16.8-3.424,19.808-13.664,20.736-21.28-2.464,0-4.928-.96-5.056-4.768Zm24.832-3.456a3.612,3.612,0,0,0-3.616,3.616,3.585,3.585,0,0,0,3.616,3.584,3.578,3.578,0,0,0,3.584-3.584A3.606,3.606,0,0,0,123.744-27.712Zm0,2.112a1.5,1.5,0,0,1,1.472,1.5,1.468,1.468,0,0,1-1.472,1.472,1.5,1.5,0,0,1-1.5-1.472A1.5,1.5,0,0,1,123.744-25.6Z" transform="translate(683 -294.397)" fill="#fff"/>
  </g>
</svg>
